<svg xmlns="http://www.w3.org/2000/svg" version="1.1" xmlns:xlink="http://www.w3.org/1999/xlink" xmlns:svgjs="http://svgjs.dev/svgjs" width="1400" height="560" preserveAspectRatio="none" viewBox="0 0 1400 560"><g mask="url(&quot;#SvgjsMask1310&quot;)" fill="none"><g mask="url(&quot;#SvgjsMask1311&quot;)"><path d="M88 200L8 120L8 8" stroke-width="2.67" stroke="#3a7cc3"></path><path d="M84 200 a4 4 0 1 0 8 0 a4 4 0 1 0 -8 0zM4 8 a4 4 0 1 0 8 0 a4 4 0 1 0 -8 0z" fill="#3a7cc3"></path><path d="M296 504L552 248L552 200" stroke-width="2.67" stroke="#3a7cc3"></path><path d="M292 504 a4 4 0 1 0 8 0 a4 4 0 1 0 -8 0zM548 200 a4 4 0 1 0 8 0 a4 4 0 1 0 -8 0z" fill="#3a7cc3"></path><path d="M1400 200L1400 504" stroke-width="2.67" stroke="#3a7cc3"></path><path d="M1396 200 a4 4 0 1 0 8 0 a4 4 0 1 0 -8 0zM1396 504 a4 4 0 1 0 8 0 a4 4 0 1 0 -8 0z" fill="#3a7cc3"></path><path d="M232 296L216 280L216 248L120 152L72 152L40 120L40 40" stroke-width="2.67" stroke="#3a7cc3"></path><path d="M228 296 a4 4 0 1 0 8 0 a4 4 0 1 0 -8 0zM36 40 a4 4 0 1 0 8 0 a4 4 0 1 0 -8 0z" fill="#3a7cc3"></path><path d="M1144 120L1032 8L984 8L840 152" stroke-width="2.67" stroke="#3a7cc3"></path><path d="M1140 120 a4 4 0 1 0 8 0 a4 4 0 1 0 -8 0zM836 152 a4 4 0 1 0 8 0 a4 4 0 1 0 -8 0z" fill="#3a7cc3"></path><path d="M1016 504L984 504L936 552L712 552" stroke-width="2.67" stroke="#3a7cc3"></path><path d="M1012 504 a4 4 0 1 0 8 0 a4 4 0 1 0 -8 0zM708 552 a4 4 0 1 0 8 0 a4 4 0 1 0 -8 0z" fill="#3a7cc3"></path><path d="M104 328L232 456L232 552" stroke-width="2.67" stroke="#3a7cc3"></path><path d="M100 328 a4 4 0 1 0 8 0 a4 4 0 1 0 -8 0zM228 552 a4 4 0 1 0 8 0 a4 4 0 1 0 -8 0z" fill="#3a7cc3"></path><path d="M1080 504L1384 504" stroke-width="2.67" stroke="#3a7cc3"></path><path d="M1076 504 a4 4 0 1 0 8 0 a4 4 0 1 0 -8 0zM1380 504 a4 4 0 1 0 8 0 a4 4 0 1 0 -8 0z" fill="#3a7cc3"></path><path d="M888 392L792 488L792 536" stroke-width="2.67" stroke="#3a7cc3"></path><path d="M884 392 a4 4 0 1 0 8 0 a4 4 0 1 0 -8 0zM788 536 a4 4 0 1 0 8 0 a4 4 0 1 0 -8 0z" fill="#3a7cc3"></path><path d="M376 376L376 280L168 72" stroke-width="2.67" stroke="#3a7cc3"></path><path d="M372 376 a4 4 0 1 0 8 0 a4 4 0 1 0 -8 0zM164 72 a4 4 0 1 0 8 0 a4 4 0 1 0 -8 0z" fill="#3a7cc3"></path><path d="M424 520L536 520L568 488L568 328" stroke-width="2.67" stroke="#3a7cc3"></path><path d="M420 520 a4 4 0 1 0 8 0 a4 4 0 1 0 -8 0zM564 328 a4 4 0 1 0 8 0 a4 4 0 1 0 -8 0z" fill="#3a7cc3"></path><path d="M680 184L776 88L888 88L968 8" stroke-width="2.67" stroke="#3a7cc3"></path><path d="M676 184 a4 4 0 1 0 8 0 a4 4 0 1 0 -8 0zM964 8 a4 4 0 1 0 8 0 a4 4 0 1 0 -8 0z" fill="#3a7cc3"></path><path d="M1160 104L1144 104L1048 8" stroke-width="2.67" stroke="#3a7cc3"></path><path d="M1156 104 a4 4 0 1 0 8 0 a4 4 0 1 0 -8 0zM1044 8 a4 4 0 1 0 8 0 a4 4 0 1 0 -8 0z" fill="#3a7cc3"></path><path d="M1272 200L1384 200L1400 184L1400 152L1256 8" stroke-width="2.67" stroke="#3a7cc3"></path><path d="M1268 200 a4 4 0 1 0 8 0 a4 4 0 1 0 -8 0zM1252 8 a4 4 0 1 0 8 0 a4 4 0 1 0 -8 0z" fill="#3a7cc3"></path><path d="M696 8L744 56L856 56L872 72L888 72L936 24L936 8" stroke-width="2.67" stroke="#3a7cc3"></path><path d="M692 8 a4 4 0 1 0 8 0 a4 4 0 1 0 -8 0zM932 8 a4 4 0 1 0 8 0 a4 4 0 1 0 -8 0z" fill="#3a7cc3"></path><path d="M1096 168L1096 456L1112 472" stroke-width="2.67" stroke="#3a7cc3"></path><path d="M1092 168 a4 4 0 1 0 8 0 a4 4 0 1 0 -8 0zM1108 472 a4 4 0 1 0 8 0 a4 4 0 1 0 -8 0z" fill="#3a7cc3"></path><path d="M504 200L488 184L488 104L584 8L680 8L696 24" stroke-width="2.67" stroke="#3a7cc3"></path><path d="M500 200 a4 4 0 1 0 8 0 a4 4 0 1 0 -8 0zM692 24 a4 4 0 1 0 8 0 a4 4 0 1 0 -8 0z" fill="#3a7cc3"></path><path d="M936 408L872 472L872 536" stroke-width="2.67" stroke="#3a7cc3"></path><path d="M932 408 a4 4 0 1 0 8 0 a4 4 0 1 0 -8 0zM868 536 a4 4 0 1 0 8 0 a4 4 0 1 0 -8 0z" fill="#3a7cc3"></path><path d="M1160 72L1144 56L1112 56L1096 40L1096 8" stroke-width="2.67" stroke="#3a7cc3"></path><path d="M1156 72 a4 4 0 1 0 8 0 a4 4 0 1 0 -8 0zM1092 8 a4 4 0 1 0 8 0 a4 4 0 1 0 -8 0z" fill="#3a7cc3"></path><path d="M904 456L888 472L888 536" stroke-width="2.67" stroke="#3a7cc3"></path><path d="M900 456 a4 4 0 1 0 8 0 a4 4 0 1 0 -8 0zM884 536 a4 4 0 1 0 8 0 a4 4 0 1 0 -8 0z" fill="#3a7cc3"></path><path d="M200 248L200 408L280 488L296 488L344 440" stroke-width="2.67" stroke="#3a7cc3"></path><path d="M196 248 a4 4 0 1 0 8 0 a4 4 0 1 0 -8 0zM340 440 a4 4 0 1 0 8 0 a4 4 0 1 0 -8 0z" fill="#3a7cc3"></path><path d="M280 56L232 104L232 120L440 328L456 328L472 312" stroke-width="2.67" stroke="#3a7cc3"></path><path d="M276 56 a4 4 0 1 0 8 0 a4 4 0 1 0 -8 0zM468 312 a4 4 0 1 0 8 0 a4 4 0 1 0 -8 0z" fill="#3a7cc3"></path><path d="M312 552L248 552" stroke-width="2.67" stroke="#3a7cc3"></path><path d="M308 552 a4 4 0 1 0 8 0 a4 4 0 1 0 -8 0zM244 552 a4 4 0 1 0 8 0 a4 4 0 1 0 -8 0z" fill="#3a7cc3"></path><path d="M1320 56L1400 136" stroke-width="2.67" stroke="#3a7cc3"></path><path d="M1316 56 a4 4 0 1 0 8 0 a4 4 0 1 0 -8 0zM1396 136 a4 4 0 1 0 8 0 a4 4 0 1 0 -8 0z" fill="#3a7cc3"></path><path d="M1160 248L1304 392L1336 392L1384 344L1384 264" stroke-width="2.67" stroke="#3a7cc3"></path><path d="M1156 248 a4 4 0 1 0 8 0 a4 4 0 1 0 -8 0zM1380 264 a4 4 0 1 0 8 0 a4 4 0 1 0 -8 0z" fill="#3a7cc3"></path><path d="M664 360L696 328L696 216L584 104L584 88L552 56" stroke-width="2.67" stroke="#3a7cc3"></path><path d="M660 360 a4 4 0 1 0 8 0 a4 4 0 1 0 -8 0zM548 56 a4 4 0 1 0 8 0 a4 4 0 1 0 -8 0z" fill="#3a7cc3"></path><path d="M584 248L584 264L568 280L568 312L408 472L408 552" stroke-width="2.67" stroke="#3a7cc3"></path><path d="M580 248 a4 4 0 1 0 8 0 a4 4 0 1 0 -8 0zM404 552 a4 4 0 1 0 8 0 a4 4 0 1 0 -8 0z" fill="#3a7cc3"></path><path d="M696 120L696 152L680 168L664 168L600 104L600 24" stroke-width="2.67" stroke="#3a7cc3"></path><path d="M692 120 a4 4 0 1 0 8 0 a4 4 0 1 0 -8 0zM596 24 a4 4 0 1 0 8 0 a4 4 0 1 0 -8 0z" fill="#3a7cc3"></path><path d="M952 168L1064 56" stroke-width="2.67" stroke="#3a7cc3"></path><path d="M948 168 a4 4 0 1 0 8 0 a4 4 0 1 0 -8 0zM1060 56 a4 4 0 1 0 8 0 a4 4 0 1 0 -8 0z" fill="#3a7cc3"></path><path d="M1144 312L1256 424L1384 424" stroke-width="2.67" stroke="#3a7cc3"></path><path d="M1140 312 a4 4 0 1 0 8 0 a4 4 0 1 0 -8 0zM1380 424 a4 4 0 1 0 8 0 a4 4 0 1 0 -8 0z" fill="#3a7cc3"></path><path d="M1160 312L1160 264L1112 216L1112 104L1096 88L1064 88L1016 136" stroke-width="2.67" stroke="#3a7cc3"></path><path d="M1156 312 a4 4 0 1 0 8 0 a4 4 0 1 0 -8 0zM1012 136 a4 4 0 1 0 8 0 a4 4 0 1 0 -8 0z" fill="#3a7cc3"></path><path d="M968 56L952 56L936 72L936 344" stroke-width="2.67" stroke="#3a7cc3"></path><path d="M964 56 a4 4 0 1 0 8 0 a4 4 0 1 0 -8 0zM932 344 a4 4 0 1 0 8 0 a4 4 0 1 0 -8 0z" fill="#3a7cc3"></path><path d="M984 360L984 232L952 200L952 184L1000 136" stroke-width="2.67" stroke="#3a7cc3"></path><path d="M980 360 a4 4 0 1 0 8 0 a4 4 0 1 0 -8 0zM996 136 a4 4 0 1 0 8 0 a4 4 0 1 0 -8 0z" fill="#3a7cc3"></path><path d="M1240 88L1144 88L1128 72" stroke-width="2.67" stroke="#3a7cc3"></path><path d="M1236 88 a4 4 0 1 0 8 0 a4 4 0 1 0 -8 0zM1124 72 a4 4 0 1 0 8 0 a4 4 0 1 0 -8 0z" fill="#3a7cc3"></path><path d="M392 24L408 8L568 8" stroke-width="2.67" stroke="#3a7cc3"></path><path d="M388 24 a4 4 0 1 0 8 0 a4 4 0 1 0 -8 0zM564 8 a4 4 0 1 0 8 0 a4 4 0 1 0 -8 0z" fill="#3a7cc3"></path><path d="M376 40L392 40L472 120L472 248L504 280" stroke-width="2.67" stroke="#3a7cc3"></path><path d="M372 40 a4 4 0 1 0 8 0 a4 4 0 1 0 -8 0zM500 280 a4 4 0 1 0 8 0 a4 4 0 1 0 -8 0z" fill="#3a7cc3"></path><path d="M408 376L360 424L344 424L328 408L312 408L264 456" stroke-width="2.67" stroke="#3a7cc3"></path><path d="M404 376 a4 4 0 1 0 8 0 a4 4 0 1 0 -8 0zM260 456 a4 4 0 1 0 8 0 a4 4 0 1 0 -8 0z" fill="#3a7cc3"></path><path d="M648 120L648 24" stroke-width="2.67" stroke="#3a7cc3"></path><path d="M644 120 a4 4 0 1 0 8 0 a4 4 0 1 0 -8 0zM644 24 a4 4 0 1 0 8 0 a4 4 0 1 0 -8 0z" fill="#3a7cc3"></path><path d="M520 56L472 104" stroke-width="2.67" stroke="#3a7cc3"></path><path d="M516 56 a4 4 0 1 0 8 0 a4 4 0 1 0 -8 0zM468 104 a4 4 0 1 0 8 0 a4 4 0 1 0 -8 0z" fill="#3a7cc3"></path><path d="M1288 520L1400 520" stroke-width="2.67" stroke="#3a7cc3"></path><path d="M1284 520 a4 4 0 1 0 8 0 a4 4 0 1 0 -8 0zM1396 520 a4 4 0 1 0 8 0 a4 4 0 1 0 -8 0z" fill="#3a7cc3"></path><path d="M856 264L712 264" stroke-width="2.67" stroke="#3a7cc3"></path><path d="M852 264 a4 4 0 1 0 8 0 a4 4 0 1 0 -8 0zM708 264 a4 4 0 1 0 8 0 a4 4 0 1 0 -8 0z" fill="#3a7cc3"></path><path d="M216 216L200 216L136 152L136 24L152 8L232 8" stroke-width="2.67" stroke="#3a7cc3"></path><path d="M212 216 a4 4 0 1 0 8 0 a4 4 0 1 0 -8 0zM228 8 a4 4 0 1 0 8 0 a4 4 0 1 0 -8 0z" fill="#3a7cc3"></path><path d="M920 216L856 152" stroke-width="2.67" stroke="#3a7cc3"></path><path d="M916 216 a4 4 0 1 0 8 0 a4 4 0 1 0 -8 0zM852 152 a4 4 0 1 0 8 0 a4 4 0 1 0 -8 0z" fill="#3a7cc3"></path><path d="M728 344L696 344L632 408L632 504L664 536L744 536" stroke-width="2.67" stroke="#3a7cc3"></path><path d="M724 344 a4 4 0 1 0 8 0 a4 4 0 1 0 -8 0zM740 536 a4 4 0 1 0 8 0 a4 4 0 1 0 -8 0z" fill="#3a7cc3"></path><path d="M424 488L424 472L552 344" stroke-width="2.67" stroke="#3a7cc3"></path><path d="M420 488 a4 4 0 1 0 8 0 a4 4 0 1 0 -8 0zM548 344 a4 4 0 1 0 8 0 a4 4 0 1 0 -8 0z" fill="#3a7cc3"></path><path d="M808 40L792 24L792 8" stroke-width="2.67" stroke="#3a7cc3"></path><path d="M804 40 a4 4 0 1 0 8 0 a4 4 0 1 0 -8 0zM788 8 a4 4 0 1 0 8 0 a4 4 0 1 0 -8 0z" fill="#3a7cc3"></path><path d="M248 536L248 472" stroke-width="2.67" stroke="#3a7cc3"></path><path d="M244 536 a4 4 0 1 0 8 0 a4 4 0 1 0 -8 0zM244 472 a4 4 0 1 0 8 0 a4 4 0 1 0 -8 0z" fill="#3a7cc3"></path><path d="M632 184L536 88L520 88L504 104L504 184L520 200L536 200L584 152" stroke-width="2.67" stroke="#3a7cc3"></path><path d="M628 184 a4 4 0 1 0 8 0 a4 4 0 1 0 -8 0zM580 152 a4 4 0 1 0 8 0 a4 4 0 1 0 -8 0z" fill="#3a7cc3"></path><path d="M1288 56L1240 8L1112 8" stroke-width="2.67" stroke="#3a7cc3"></path><path d="M1284 56 a4 4 0 1 0 8 0 a4 4 0 1 0 -8 0zM1108 8 a4 4 0 1 0 8 0 a4 4 0 1 0 -8 0z" fill="#3a7cc3"></path><path d="M632 344L616 328L616 184L600 168L584 168L568 184L568 264L552 280" stroke-width="2.67" stroke="#3a7cc3"></path><path d="M628 344 a4 4 0 1 0 8 0 a4 4 0 1 0 -8 0zM548 280 a4 4 0 1 0 8 0 a4 4 0 1 0 -8 0z" fill="#3a7cc3"></path><path d="M1176 168L1128 216" stroke-width="2.67" stroke="#3a7cc3"></path><path d="M1172 168 a4 4 0 1 0 8 0 a4 4 0 1 0 -8 0zM1124 216 a4 4 0 1 0 8 0 a4 4 0 1 0 -8 0z" fill="#3a7cc3"></path><path d="M648 360L648 376L584 440L584 552" stroke-width="2.67" stroke="#3a7cc3"></path><path d="M644 360 a4 4 0 1 0 8 0 a4 4 0 1 0 -8 0zM580 552 a4 4 0 1 0 8 0 a4 4 0 1 0 -8 0z" fill="#3a7cc3"></path><path d="M824 440L824 424L712 312L712 280" stroke-width="2.67" stroke="#3a7cc3"></path><path d="M820 440 a4 4 0 1 0 8 0 a4 4 0 1 0 -8 0zM708 280 a4 4 0 1 0 8 0 a4 4 0 1 0 -8 0z" fill="#3a7cc3"></path><path d="M1080 456L1112 488L1256 488L1272 472L1320 472L1336 488L1384 488" stroke-width="2.67" stroke="#3a7cc3"></path><path d="M1076 456 a4 4 0 1 0 8 0 a4 4 0 1 0 -8 0zM1380 488 a4 4 0 1 0 8 0 a4 4 0 1 0 -8 0z" fill="#3a7cc3"></path><path d="M376 104L424 152L456 152" stroke-width="2.67" stroke="#3a7cc3"></path><path d="M372 104 a4 4 0 1 0 8 0 a4 4 0 1 0 -8 0zM452 152 a4 4 0 1 0 8 0 a4 4 0 1 0 -8 0z" fill="#3a7cc3"></path><path d="M968 408L1032 472L1032 504L984 552L952 552" stroke-width="2.67" stroke="#3a7cc3"></path><path d="M964 408 a4 4 0 1 0 8 0 a4 4 0 1 0 -8 0zM948 552 a4 4 0 1 0 8 0 a4 4 0 1 0 -8 0z" fill="#3a7cc3"></path><path d="M856 328L920 264L920 232L856 168L712 168" stroke-width="2.67" stroke="#3a7cc3"></path><path d="M852 328 a4 4 0 1 0 8 0 a4 4 0 1 0 -8 0zM708 168 a4 4 0 1 0 8 0 a4 4 0 1 0 -8 0z" fill="#3a7cc3"></path><path d="M1208 200L1224 200L1320 104L1320 88L1304 72L1224 72L1176 24L1144 24" stroke-width="2.67" stroke="#3a7cc3"></path><path d="M1204 200 a4 4 0 1 0 8 0 a4 4 0 1 0 -8 0zM1140 24 a4 4 0 1 0 8 0 a4 4 0 1 0 -8 0z" fill="#3a7cc3"></path><path d="M1064 456L1032 456L888 312" stroke-width="2.67" stroke="#3a7cc3"></path><path d="M1060 456 a4 4 0 1 0 8 0 a4 4 0 1 0 -8 0zM884 312 a4 4 0 1 0 8 0 a4 4 0 1 0 -8 0z" fill="#3a7cc3"></path><path d="M1048 200L1080 200" stroke-width="2.67" stroke="#3a7cc3"></path><path d="M1044 200 a4 4 0 1 0 8 0 a4 4 0 1 0 -8 0zM1076 200 a4 4 0 1 0 8 0 a4 4 0 1 0 -8 0z" fill="#3a7cc3"></path><path d="M504 408L552 360" stroke-width="2.67" stroke="#3a7cc3"></path><path d="M500 408 a4 4 0 1 0 8 0 a4 4 0 1 0 -8 0zM548 360 a4 4 0 1 0 8 0 a4 4 0 1 0 -8 0z" fill="#3a7cc3"></path><path d="M136 472L136 552" stroke-width="2.67" stroke="#3a7cc3"></path><path d="M132 472 a4 4 0 1 0 8 0 a4 4 0 1 0 -8 0zM132 552 a4 4 0 1 0 8 0 a4 4 0 1 0 -8 0z" fill="#3a7cc3"></path><path d="M1208 312L1176 312" stroke-width="2.67" stroke="#3a7cc3"></path><path d="M1204 312 a4 4 0 1 0 8 0 a4 4 0 1 0 -8 0zM1172 312 a4 4 0 1 0 8 0 a4 4 0 1 0 -8 0z" fill="#3a7cc3"></path><path d="M232 280L264 280L312 232" stroke-width="2.67" stroke="#3a7cc3"></path><path d="M228 280 a4 4 0 1 0 8 0 a4 4 0 1 0 -8 0zM308 232 a4 4 0 1 0 8 0 a4 4 0 1 0 -8 0z" fill="#3a7cc3"></path><path d="M152 472L216 472" stroke-width="2.67" stroke="#3a7cc3"></path><path d="M148 472 a4 4 0 1 0 8 0 a4 4 0 1 0 -8 0zM212 472 a4 4 0 1 0 8 0 a4 4 0 1 0 -8 0z" fill="#3a7cc3"></path><path d="M104 248L104 312L8 408L8 536L24 552" stroke-width="2.67" stroke="#3a7cc3"></path><path d="M100 248 a4 4 0 1 0 8 0 a4 4 0 1 0 -8 0zM20 552 a4 4 0 1 0 8 0 a4 4 0 1 0 -8 0z" fill="#3a7cc3"></path><path d="M440 24L552 24" stroke-width="2.67" stroke="#3a7cc3"></path><path d="M436 24 a4 4 0 1 0 8 0 a4 4 0 1 0 -8 0zM548 24 a4 4 0 1 0 8 0 a4 4 0 1 0 -8 0z" fill="#3a7cc3"></path><path d="M392 184L344 136L344 120L360 104L360 88L392 56" stroke-width="2.67" stroke="#3a7cc3"></path><path d="M388 184 a4 4 0 1 0 8 0 a4 4 0 1 0 -8 0zM388 56 a4 4 0 1 0 8 0 a4 4 0 1 0 -8 0z" fill="#3a7cc3"></path><path d="M88 104L120 72L120 40L88 8L56 8L24 40L24 120" stroke-width="2.67" stroke="#3a7cc3"></path><path d="M84 104 a4 4 0 1 0 8 0 a4 4 0 1 0 -8 0zM20 120 a4 4 0 1 0 8 0 a4 4 0 1 0 -8 0z" fill="#3a7cc3"></path><path d="M712 56L680 24L664 24" stroke-width="2.67" stroke="#3a7cc3"></path><path d="M708 56 a4 4 0 1 0 8 0 a4 4 0 1 0 -8 0zM660 24 a4 4 0 1 0 8 0 a4 4 0 1 0 -8 0z" fill="#3a7cc3"></path><path d="M136 440L168 408" stroke-width="2.67" stroke="#3a7cc3"></path><path d="M132 440 a4 4 0 1 0 8 0 a4 4 0 1 0 -8 0zM164 408 a4 4 0 1 0 8 0 a4 4 0 1 0 -8 0z" fill="#3a7cc3"></path><path d="M776 72L856 72" stroke-width="2.67" stroke="#3a7cc3"></path><path d="M772 72 a4 4 0 1 0 8 0 a4 4 0 1 0 -8 0zM852 72 a4 4 0 1 0 8 0 a4 4 0 1 0 -8 0z" fill="#3a7cc3"></path><path d="M104 56L72 24L56 24" stroke-width="2.67" stroke="#3a7cc3"></path><path d="M100 56 a4 4 0 1 0 8 0 a4 4 0 1 0 -8 0zM52 24 a4 4 0 1 0 8 0 a4 4 0 1 0 -8 0z" fill="#3a7cc3"></path><path d="M488 360L504 360L552 312L552 296L536 280" stroke-width="2.67" stroke="#3a7cc3"></path><path d="M484 360 a4 4 0 1 0 8 0 a4 4 0 1 0 -8 0zM532 280 a4 4 0 1 0 8 0 a4 4 0 1 0 -8 0z" fill="#3a7cc3"></path><path d="M776 216L792 232L808 232L824 248L888 248L904 264" stroke-width="2.67" stroke="#3a7cc3"></path><path d="M772 216 a4 4 0 1 0 8 0 a4 4 0 1 0 -8 0zM900 264 a4 4 0 1 0 8 0 a4 4 0 1 0 -8 0z" fill="#3a7cc3"></path><path d="M1192 216L1176 200L1160 200L1144 216L1144 232" stroke-width="2.67" stroke="#3a7cc3"></path><path d="M1188 216 a4 4 0 1 0 8 0 a4 4 0 1 0 -8 0zM1140 232 a4 4 0 1 0 8 0 a4 4 0 1 0 -8 0z" fill="#3a7cc3"></path><path d="M1272 168L1368 168L1384 152" stroke-width="2.67" stroke="#3a7cc3"></path><path d="M1268 168 a4 4 0 1 0 8 0 a4 4 0 1 0 -8 0zM1380 152 a4 4 0 1 0 8 0 a4 4 0 1 0 -8 0z" fill="#3a7cc3"></path><path d="M1272 456L1256 472L1208 472L1160 424L1128 424L1112 440L1112 456L1128 472L1192 472" stroke-width="2.67" stroke="#3a7cc3"></path><path d="M1268 456 a4 4 0 1 0 8 0 a4 4 0 1 0 -8 0zM1188 472 a4 4 0 1 0 8 0 a4 4 0 1 0 -8 0z" fill="#3a7cc3"></path><path d="M1304 328L1256 328L1160 232L1160 216" stroke-width="2.67" stroke="#3a7cc3"></path><path d="M1300 328 a4 4 0 1 0 8 0 a4 4 0 1 0 -8 0zM1156 216 a4 4 0 1 0 8 0 a4 4 0 1 0 -8 0z" fill="#3a7cc3"></path><path d="M1304 456L1384 456" stroke-width="2.67" stroke="#3a7cc3"></path><path d="M1300 456 a4 4 0 1 0 8 0 a4 4 0 1 0 -8 0zM1380 456 a4 4 0 1 0 8 0 a4 4 0 1 0 -8 0z" fill="#3a7cc3"></path><path d="M1176 104L1304 104" stroke-width="2.67" stroke="#3a7cc3"></path><path d="M1172 104 a4 4 0 1 0 8 0 a4 4 0 1 0 -8 0zM1300 104 a4 4 0 1 0 8 0 a4 4 0 1 0 -8 0z" fill="#3a7cc3"></path><path d="M1048 264L1048 344L1080 376L1080 440" stroke-width="2.67" stroke="#3a7cc3"></path><path d="M1044 264 a4 4 0 1 0 8 0 a4 4 0 1 0 -8 0zM1076 440 a4 4 0 1 0 8 0 a4 4 0 1 0 -8 0z" fill="#3a7cc3"></path><path d="M1112 552L1112 520" stroke-width="2.67" stroke="#3a7cc3"></path><path d="M1108 552 a4 4 0 1 0 8 0 a4 4 0 1 0 -8 0zM1108 520 a4 4 0 1 0 8 0 a4 4 0 1 0 -8 0z" fill="#3a7cc3"></path><path d="M856 504L824 504L808 520L808 536" stroke-width="2.67" stroke="#3a7cc3"></path><path d="M852 504 a4 4 0 1 0 8 0 a4 4 0 1 0 -8 0zM804 536 a4 4 0 1 0 8 0 a4 4 0 1 0 -8 0z" fill="#3a7cc3"></path><path d="M168 296L168 216L120 168L72 168" stroke-width="2.67" stroke="#3a7cc3"></path><path d="M164 296 a4 4 0 1 0 8 0 a4 4 0 1 0 -8 0zM68 168 a4 4 0 1 0 8 0 a4 4 0 1 0 -8 0z" fill="#3a7cc3"></path><path d="M1368 184L1256 184L1224 216L1224 248L1208 264" stroke-width="2.67" stroke="#3a7cc3"></path><path d="M1364 184 a4 4 0 1 0 8 0 a4 4 0 1 0 -8 0zM1204 264 a4 4 0 1 0 8 0 a4 4 0 1 0 -8 0z" fill="#3a7cc3"></path><path d="M792 184L840 232L904 232" stroke-width="2.67" stroke="#3a7cc3"></path><path d="M788 184 a4 4 0 1 0 8 0 a4 4 0 1 0 -8 0zM900 232 a4 4 0 1 0 8 0 a4 4 0 1 0 -8 0z" fill="#3a7cc3"></path><path d="M760 376L808 424L808 456L744 520L664 520L648 504L648 440" stroke-width="2.67" stroke="#3a7cc3"></path><path d="M756 376 a4 4 0 1 0 8 0 a4 4 0 1 0 -8 0zM644 440 a4 4 0 1 0 8 0 a4 4 0 1 0 -8 0z" fill="#3a7cc3"></path><path d="M40 264L8 296L8 392" stroke-width="2.67" stroke="#3a7cc3"></path><path d="M36 264 a4 4 0 1 0 8 0 a4 4 0 1 0 -8 0zM4 392 a4 4 0 1 0 8 0 a4 4 0 1 0 -8 0z" fill="#3a7cc3"></path><path d="M1224 440L1240 456L1256 456L1272 440L1384 440" stroke-width="2.67" stroke="#3a7cc3"></path><path d="M1220 440 a4 4 0 1 0 8 0 a4 4 0 1 0 -8 0zM1380 440 a4 4 0 1 0 8 0 a4 4 0 1 0 -8 0z" fill="#3a7cc3"></path><path d="M744 360L664 440L664 504" stroke-width="2.67" stroke="#3a7cc3"></path><path d="M740 360 a4 4 0 1 0 8 0 a4 4 0 1 0 -8 0zM660 504 a4 4 0 1 0 8 0 a4 4 0 1 0 -8 0z" fill="#3a7cc3"></path><path d="M520 264L536 248L536 216" stroke-width="2.67" stroke="#3a7cc3"></path><path d="M516 264 a4 4 0 1 0 8 0 a4 4 0 1 0 -8 0zM532 216 a4 4 0 1 0 8 0 a4 4 0 1 0 -8 0z" fill="#3a7cc3"></path><path d="M344 488L328 488L280 536L264 536" stroke-width="2.67" stroke="#3a7cc3"></path><path d="M340 488 a4 4 0 1 0 8 0 a4 4 0 1 0 -8 0zM260 536 a4 4 0 1 0 8 0 a4 4 0 1 0 -8 0z" fill="#3a7cc3"></path><path d="M1320 152L1288 152" stroke-width="2.67" stroke="#3a7cc3"></path><path d="M1316 152 a4 4 0 1 0 8 0 a4 4 0 1 0 -8 0zM1284 152 a4 4 0 1 0 8 0 a4 4 0 1 0 -8 0z" fill="#3a7cc3"></path><path d="M72 248L120 200L120 184" stroke-width="2.67" stroke="#3a7cc3"></path><path d="M68 248 a4 4 0 1 0 8 0 a4 4 0 1 0 -8 0zM116 184 a4 4 0 1 0 8 0 a4 4 0 1 0 -8 0z" fill="#3a7cc3"></path><path d="M696 360L728 360" stroke-width="2.67" stroke="#3a7cc3"></path><path d="M692 360 a4 4 0 1 0 8 0 a4 4 0 1 0 -8 0zM724 360 a4 4 0 1 0 8 0 a4 4 0 1 0 -8 0z" fill="#3a7cc3"></path><path d="M152 216L152 296L184 328L184 392" stroke-width="2.67" stroke="#3a7cc3"></path><path d="M148 216 a4 4 0 1 0 8 0 a4 4 0 1 0 -8 0zM180 392 a4 4 0 1 0 8 0 a4 4 0 1 0 -8 0z" fill="#3a7cc3"></path><path d="M952 456L968 440L984 440L1000 456L1000 488" stroke-width="2.67" stroke="#3a7cc3"></path><path d="M948 456 a4 4 0 1 0 8 0 a4 4 0 1 0 -8 0zM996 488 a4 4 0 1 0 8 0 a4 4 0 1 0 -8 0z" fill="#3a7cc3"></path><path d="M1000 88L952 136L952 152" stroke-width="2.67" stroke="#3a7cc3"></path><path d="M996 88 a4 4 0 1 0 8 0 a4 4 0 1 0 -8 0zM948 152 a4 4 0 1 0 8 0 a4 4 0 1 0 -8 0z" fill="#3a7cc3"></path><path d="M792 216L760 184L696 184" stroke-width="2.67" stroke="#3a7cc3"></path><path d="M788 216 a4 4 0 1 0 8 0 a4 4 0 1 0 -8 0zM692 184 a4 4 0 1 0 8 0 a4 4 0 1 0 -8 0z" fill="#3a7cc3"></path><path d="M1016 280L1032 264L1032 136L1064 104L1096 104" stroke-width="2.67" stroke="#3a7cc3"></path><path d="M1012 280 a4 4 0 1 0 8 0 a4 4 0 1 0 -8 0zM1092 104 a4 4 0 1 0 8 0 a4 4 0 1 0 -8 0z" fill="#3a7cc3"></path><path d="M744 472L760 472L792 440L792 424L744 376" stroke-width="2.67" stroke="#3a7cc3"></path><path d="M740 472 a4 4 0 1 0 8 0 a4 4 0 1 0 -8 0zM740 376 a4 4 0 1 0 8 0 a4 4 0 1 0 -8 0z" fill="#3a7cc3"></path><path d="M920 472L920 456L952 424L952 392L888 328L872 328L840 360L776 360L728 312" stroke-width="2.67" stroke="#3a7cc3"></path><path d="M916 472 a4 4 0 1 0 8 0 a4 4 0 1 0 -8 0zM724 312 a4 4 0 1 0 8 0 a4 4 0 1 0 -8 0z" fill="#3a7cc3"></path><path d="M200 40L200 56L216 72L248 72L312 8L392 8" stroke-width="2.67" stroke="#3a7cc3"></path><path d="M196 40 a4 4 0 1 0 8 0 a4 4 0 1 0 -8 0zM388 8 a4 4 0 1 0 8 0 a4 4 0 1 0 -8 0z" fill="#3a7cc3"></path><path d="M648 184L632 200L632 280L664 312L680 312" stroke-width="2.67" stroke="#3a7cc3"></path><path d="M644 184 a4 4 0 1 0 8 0 a4 4 0 1 0 -8 0zM676 312 a4 4 0 1 0 8 0 a4 4 0 1 0 -8 0z" fill="#3a7cc3"></path><path d="M1400 552L1384 536L1128 536" stroke-width="2.67" stroke="#3a7cc3"></path><path d="M1396 552 a4 4 0 1 0 8 0 a4 4 0 1 0 -8 0zM1124 536 a4 4 0 1 0 8 0 a4 4 0 1 0 -8 0z" fill="#3a7cc3"></path><path d="M744 104L760 88L760 72" stroke-width="2.67" stroke="#3a7cc3"></path><path d="M740 104 a4 4 0 1 0 8 0 a4 4 0 1 0 -8 0zM756 72 a4 4 0 1 0 8 0 a4 4 0 1 0 -8 0z" fill="#3a7cc3"></path><path d="M1176 376L1112 312L1112 232" stroke-width="2.67" stroke="#3a7cc3"></path><path d="M1172 376 a4 4 0 1 0 8 0 a4 4 0 1 0 -8 0zM1108 232 a4 4 0 1 0 8 0 a4 4 0 1 0 -8 0z" fill="#3a7cc3"></path><path d="M824 376L920 376L936 392" stroke-width="2.67" stroke="#3a7cc3"></path><path d="M820 376 a4 4 0 1 0 8 0 a4 4 0 1 0 -8 0zM932 392 a4 4 0 1 0 8 0 a4 4 0 1 0 -8 0z" fill="#3a7cc3"></path><path d="M1368 72L1368 88L1400 120" stroke-width="2.67" stroke="#3a7cc3"></path><path d="M1364 72 a4 4 0 1 0 8 0 a4 4 0 1 0 -8 0zM1396 120 a4 4 0 1 0 8 0 a4 4 0 1 0 -8 0z" fill="#3a7cc3"></path><path d="M1064 152L1064 184" stroke-width="2.67" stroke="#3a7cc3"></path><path d="M1060 152 a4 4 0 1 0 8 0 a4 4 0 1 0 -8 0zM1060 184 a4 4 0 1 0 8 0 a4 4 0 1 0 -8 0z" fill="#3a7cc3"></path><path d="M1304 488L1272 488" stroke-width="2.67" stroke="#3a7cc3"></path><path d="M1300 488 a4 4 0 1 0 8 0 a4 4 0 1 0 -8 0zM1268 488 a4 4 0 1 0 8 0 a4 4 0 1 0 -8 0z" fill="#3a7cc3"></path><path d="M856 296L808 344L776 344L728 296L728 280" stroke-width="2.67" stroke="#3a7cc3"></path><path d="M852 296 a4 4 0 1 0 8 0 a4 4 0 1 0 -8 0zM724 280 a4 4 0 1 0 8 0 a4 4 0 1 0 -8 0z" fill="#3a7cc3"></path><path d="M312 456L296 472L280 472" stroke-width="2.67" stroke="#3a7cc3"></path><path d="M308 456 a4 4 0 1 0 8 0 a4 4 0 1 0 -8 0zM276 472 a4 4 0 1 0 8 0 a4 4 0 1 0 -8 0z" fill="#3a7cc3"></path><path d="M1000 184L968 184" stroke-width="2.67" stroke="#3a7cc3"></path><path d="M996 184 a4 4 0 1 0 8 0 a4 4 0 1 0 -8 0zM964 184 a4 4 0 1 0 8 0 a4 4 0 1 0 -8 0z" fill="#3a7cc3"></path><path d="M1304 232L1288 216L1240 216" stroke-width="2.67" stroke="#3a7cc3"></path><path d="M1300 232 a4 4 0 1 0 8 0 a4 4 0 1 0 -8 0zM1236 216 a4 4 0 1 0 8 0 a4 4 0 1 0 -8 0z" fill="#3a7cc3"></path><path d="M600 552L632 520" stroke-width="2.67" stroke="#3a7cc3"></path><path d="M596 552 a4 4 0 1 0 8 0 a4 4 0 1 0 -8 0zM628 520 a4 4 0 1 0 8 0 a4 4 0 1 0 -8 0z" fill="#3a7cc3"></path><path d="M1064 120L1096 120" stroke-width="2.67" stroke="#3a7cc3"></path><path d="M1060 120 a4 4 0 1 0 8 0 a4 4 0 1 0 -8 0zM1092 120 a4 4 0 1 0 8 0 a4 4 0 1 0 -8 0z" fill="#3a7cc3"></path><path d="M600 536L616 520L616 424" stroke-width="2.67" stroke="#3a7cc3"></path><path d="M596 536 a4 4 0 1 0 8 0 a4 4 0 1 0 -8 0zM612 424 a4 4 0 1 0 8 0 a4 4 0 1 0 -8 0z" fill="#3a7cc3"></path><path d="M1208 552L1384 552" stroke-width="2.67" stroke="#3a7cc3"></path><path d="M1204 552 a4 4 0 1 0 8 0 a4 4 0 1 0 -8 0zM1380 552 a4 4 0 1 0 8 0 a4 4 0 1 0 -8 0z" fill="#3a7cc3"></path><path d="M1384 24L1352 56L1336 56L1320 40L1304 40L1272 8" stroke-width="2.67" stroke="#3a7cc3"></path><path d="M1380 24 a4 4 0 1 0 8 0 a4 4 0 1 0 -8 0zM1268 8 a4 4 0 1 0 8 0 a4 4 0 1 0 -8 0z" fill="#3a7cc3"></path><path d="M88 264L56 264L8 216L8 152" stroke-width="2.67" stroke="#3a7cc3"></path><path d="M84 264 a4 4 0 1 0 8 0 a4 4 0 1 0 -8 0zM4 152 a4 4 0 1 0 8 0 a4 4 0 1 0 -8 0z" fill="#3a7cc3"></path><path d="M184 456L104 456L40 392" stroke-width="2.67" stroke="#3a7cc3"></path><path d="M180 456 a4 4 0 1 0 8 0 a4 4 0 1 0 -8 0zM36 392 a4 4 0 1 0 8 0 a4 4 0 1 0 -8 0z" fill="#3a7cc3"></path><path d="M632 56L632 120" stroke-width="2.67" stroke="#3a7cc3"></path><path d="M628 56 a4 4 0 1 0 8 0 a4 4 0 1 0 -8 0zM628 120 a4 4 0 1 0 8 0 a4 4 0 1 0 -8 0z" fill="#3a7cc3"></path><path d="M312 104L312 24" stroke-width="2.67" stroke="#3a7cc3"></path><path d="M308 104 a4 4 0 1 0 8 0 a4 4 0 1 0 -8 0zM308 24 a4 4 0 1 0 8 0 a4 4 0 1 0 -8 0z" fill="#3a7cc3"></path><path d="M760 232L728 200L696 200" stroke-width="2.67" stroke="#3a7cc3"></path><path d="M756 232 a4 4 0 1 0 8 0 a4 4 0 1 0 -8 0zM692 200 a4 4 0 1 0 8 0 a4 4 0 1 0 -8 0z" fill="#3a7cc3"></path><path d="M616 360L584 360" stroke-width="2.67" stroke="#3a7cc3"></path><path d="M612 360 a4 4 0 1 0 8 0 a4 4 0 1 0 -8 0zM580 360 a4 4 0 1 0 8 0 a4 4 0 1 0 -8 0z" fill="#3a7cc3"></path><path d="M888 120L920 120" stroke-width="2.67" stroke="#3a7cc3"></path><path d="M884 120 a4 4 0 1 0 8 0 a4 4 0 1 0 -8 0zM916 120 a4 4 0 1 0 8 0 a4 4 0 1 0 -8 0z" fill="#3a7cc3"></path><path d="M840 216L856 200L856 184" stroke-width="2.67" stroke="#3a7cc3"></path><path d="M836 216 a4 4 0 1 0 8 0 a4 4 0 1 0 -8 0zM852 184 a4 4 0 1 0 8 0 a4 4 0 1 0 -8 0z" fill="#3a7cc3"></path><path d="M920 392L904 392L808 488L808 504" stroke-width="2.67" stroke="#3a7cc3"></path><path d="M916 392 a4 4 0 1 0 8 0 a4 4 0 1 0 -8 0zM804 504 a4 4 0 1 0 8 0 a4 4 0 1 0 -8 0z" fill="#3a7cc3"></path><path d="M1272 136L1256 120L1192 120L1128 184" stroke-width="2.67" stroke="#3a7cc3"></path><path d="M1268 136 a4 4 0 1 0 8 0 a4 4 0 1 0 -8 0zM1124 184 a4 4 0 1 0 8 0 a4 4 0 1 0 -8 0z" fill="#3a7cc3"></path><path d="M328 312L344 296L344 264L328 248L312 248L232 328L216 328" stroke-width="2.67" stroke="#3a7cc3"></path><path d="M324 312 a4 4 0 1 0 8 0 a4 4 0 1 0 -8 0zM212 328 a4 4 0 1 0 8 0 a4 4 0 1 0 -8 0z" fill="#3a7cc3"></path><path d="M88 392L88 344" stroke-width="2.67" stroke="#3a7cc3"></path><path d="M84 392 a4 4 0 1 0 8 0 a4 4 0 1 0 -8 0zM84 344 a4 4 0 1 0 8 0 a4 4 0 1 0 -8 0z" fill="#3a7cc3"></path><path d="M1128 360L1144 360L1192 408L1192 440L1208 456L1224 456" stroke-width="2.67" stroke="#3a7cc3"></path><path d="M1124 360 a4 4 0 1 0 8 0 a4 4 0 1 0 -8 0zM1220 456 a4 4 0 1 0 8 0 a4 4 0 1 0 -8 0z" fill="#3a7cc3"></path><path d="M40 200L40 232L56 248" stroke-width="2.67" stroke="#3a7cc3"></path><path d="M36 200 a4 4 0 1 0 8 0 a4 4 0 1 0 -8 0zM52 248 a4 4 0 1 0 8 0 a4 4 0 1 0 -8 0z" fill="#3a7cc3"></path><path d="M1016 184L984 216" stroke-width="2.67" stroke="#3a7cc3"></path><path d="M1012 184 a4 4 0 1 0 8 0 a4 4 0 1 0 -8 0zM980 216 a4 4 0 1 0 8 0 a4 4 0 1 0 -8 0z" fill="#3a7cc3"></path><path d="M520 152L520 184" stroke-width="2.67" stroke="#3a7cc3"></path><path d="M516 152 a4 4 0 1 0 8 0 a4 4 0 1 0 -8 0zM516 184 a4 4 0 1 0 8 0 a4 4 0 1 0 -8 0z" fill="#3a7cc3"></path><path d="M24 408L104 488L104 552" stroke-width="2.67" stroke="#3a7cc3"></path><path d="M20 408 a4 4 0 1 0 8 0 a4 4 0 1 0 -8 0zM100 552 a4 4 0 1 0 8 0 a4 4 0 1 0 -8 0z" fill="#3a7cc3"></path><path d="M776 136L744 136L728 152" stroke-width="2.67" stroke="#3a7cc3"></path><path d="M772 136 a4 4 0 1 0 8 0 a4 4 0 1 0 -8 0zM724 152 a4 4 0 1 0 8 0 a4 4 0 1 0 -8 0z" fill="#3a7cc3"></path><path d="M280 232L280 248L264 264L232 264" stroke-width="2.67" stroke="#3a7cc3"></path><path d="M276 232 a4 4 0 1 0 8 0 a4 4 0 1 0 -8 0zM228 264 a4 4 0 1 0 8 0 a4 4 0 1 0 -8 0z" fill="#3a7cc3"></path><path d="M296 152L280 152L248 120L248 104L296 56L296 40" stroke-width="2.67" stroke="#3a7cc3"></path><path d="M292 152 a4 4 0 1 0 8 0 a4 4 0 1 0 -8 0zM292 40 a4 4 0 1 0 8 0 a4 4 0 1 0 -8 0z" fill="#3a7cc3"></path><path d="M952 296L952 312L968 328L968 376L1032 440L1064 440" stroke-width="2.67" stroke="#3a7cc3"></path><path d="M948 296 a4 4 0 1 0 8 0 a4 4 0 1 0 -8 0zM1060 440 a4 4 0 1 0 8 0 a4 4 0 1 0 -8 0z" fill="#3a7cc3"></path><path d="M1272 232L1272 312" stroke-width="2.67" stroke="#3a7cc3"></path><path d="M1268 232 a4 4 0 1 0 8 0 a4 4 0 1 0 -8 0zM1268 312 a4 4 0 1 0 8 0 a4 4 0 1 0 -8 0z" fill="#3a7cc3"></path><path d="M440 296L424 296L296 168" stroke-width="2.67" stroke="#3a7cc3"></path><path d="M436 296 a4 4 0 1 0 8 0 a4 4 0 1 0 -8 0zM292 168 a4 4 0 1 0 8 0 a4 4 0 1 0 -8 0z" fill="#3a7cc3"></path><path d="M1240 232L1256 248L1256 312" stroke-width="2.67" stroke="#3a7cc3"></path><path d="M1236 232 a4 4 0 1 0 8 0 a4 4 0 1 0 -8 0zM1252 312 a4 4 0 1 0 8 0 a4 4 0 1 0 -8 0z" fill="#3a7cc3"></path><path d="M248 408L248 440" stroke-width="2.67" stroke="#3a7cc3"></path><path d="M244 408 a4 4 0 1 0 8 0 a4 4 0 1 0 -8 0zM244 440 a4 4 0 1 0 8 0 a4 4 0 1 0 -8 0z" fill="#3a7cc3"></path><path d="M184 136L152 136" stroke-width="2.67" stroke="#3a7cc3"></path><path d="M180 136 a4 4 0 1 0 8 0 a4 4 0 1 0 -8 0zM148 136 a4 4 0 1 0 8 0 a4 4 0 1 0 -8 0z" fill="#3a7cc3"></path><path d="M1368 152L1368 136L1336 104" stroke-width="2.67" stroke="#3a7cc3"></path><path d="M1364 152 a4 4 0 1 0 8 0 a4 4 0 1 0 -8 0zM1332 104 a4 4 0 1 0 8 0 a4 4 0 1 0 -8 0z" fill="#3a7cc3"></path><path d="M904 8L872 40L872 56" stroke-width="2.67" stroke="#3a7cc3"></path><path d="M900 8 a4 4 0 1 0 8 0 a4 4 0 1 0 -8 0zM868 56 a4 4 0 1 0 8 0 a4 4 0 1 0 -8 0z" fill="#3a7cc3"></path><path d="M72 408L72 360" stroke-width="2.67" stroke="#3a7cc3"></path><path d="M68 408 a4 4 0 1 0 8 0 a4 4 0 1 0 -8 0zM68 360 a4 4 0 1 0 8 0 a4 4 0 1 0 -8 0z" fill="#3a7cc3"></path><path d="M1128 120L1128 168" stroke-width="2.67" stroke="#3a7cc3"></path><path d="M1124 120 a4 4 0 1 0 8 0 a4 4 0 1 0 -8 0zM1124 168 a4 4 0 1 0 8 0 a4 4 0 1 0 -8 0z" fill="#3a7cc3"></path><path d="M1080 488L1016 552L1000 552" stroke-width="2.67" stroke="#3a7cc3"></path><path d="M1076 488 a4 4 0 1 0 8 0 a4 4 0 1 0 -8 0zM996 552 a4 4 0 1 0 8 0 a4 4 0 1 0 -8 0z" fill="#3a7cc3"></path><path d="M808 312L840 280L856 280" stroke-width="2.67" stroke="#3a7cc3"></path><path d="M804 312 a4 4 0 1 0 8 0 a4 4 0 1 0 -8 0zM852 280 a4 4 0 1 0 8 0 a4 4 0 1 0 -8 0z" fill="#3a7cc3"></path><path d="M584 392L584 424" stroke-width="2.67" stroke="#3a7cc3"></path><path d="M580 392 a4 4 0 1 0 8 0 a4 4 0 1 0 -8 0zM580 424 a4 4 0 1 0 8 0 a4 4 0 1 0 -8 0z" fill="#3a7cc3"></path><path d="M872 440L888 440L920 408" stroke-width="2.67" stroke="#3a7cc3"></path><path d="M868 440 a4 4 0 1 0 8 0 a4 4 0 1 0 -8 0zM916 408 a4 4 0 1 0 8 0 a4 4 0 1 0 -8 0z" fill="#3a7cc3"></path><path d="M760 120L824 120L840 136" stroke-width="2.67" stroke="#3a7cc3"></path><path d="M756 120 a4 4 0 1 0 8 0 a4 4 0 1 0 -8 0zM836 136 a4 4 0 1 0 8 0 a4 4 0 1 0 -8 0z" fill="#3a7cc3"></path><path d="M504 424L488 424L440 472L440 504" stroke-width="2.67" stroke="#3a7cc3"></path><path d="M500 424 a4 4 0 1 0 8 0 a4 4 0 1 0 -8 0zM436 504 a4 4 0 1 0 8 0 a4 4 0 1 0 -8 0z" fill="#3a7cc3"></path><path d="M168 344L136 344L120 328L120 280L136 264L136 200" stroke-width="2.67" stroke="#3a7cc3"></path><path d="M164 344 a4 4 0 1 0 8 0 a4 4 0 1 0 -8 0zM132 200 a4 4 0 1 0 8 0 a4 4 0 1 0 -8 0z" fill="#3a7cc3"></path><path d="M376 184L328 184L312 168L312 120L344 88" stroke-width="2.67" stroke="#3a7cc3"></path><path d="M372 184 a4 4 0 1 0 8 0 a4 4 0 1 0 -8 0zM340 88 a4 4 0 1 0 8 0 a4 4 0 1 0 -8 0z" fill="#3a7cc3"></path><path d="M1112 24L1128 40L1160 40L1192 72L1208 72" stroke-width="2.67" stroke="#3a7cc3"></path><path d="M1108 24 a4 4 0 1 0 8 0 a4 4 0 1 0 -8 0zM1204 72 a4 4 0 1 0 8 0 a4 4 0 1 0 -8 0z" fill="#3a7cc3"></path><path d="M1064 536L1048 552L1032 552" stroke-width="2.67" stroke="#3a7cc3"></path><path d="M1060 536 a4 4 0 1 0 8 0 a4 4 0 1 0 -8 0zM1028 552 a4 4 0 1 0 8 0 a4 4 0 1 0 -8 0z" fill="#3a7cc3"></path><path d="M216 200L280 200L296 216L296 232" stroke-width="2.67" stroke="#3a7cc3"></path><path d="M212 200 a4 4 0 1 0 8 0 a4 4 0 1 0 -8 0zM292 232 a4 4 0 1 0 8 0 a4 4 0 1 0 -8 0z" fill="#3a7cc3"></path><path d="M1048 360L1016 392L1000 392L984 376" stroke-width="2.67" stroke="#3a7cc3"></path><path d="M1044 360 a4 4 0 1 0 8 0 a4 4 0 1 0 -8 0zM980 376 a4 4 0 1 0 8 0 a4 4 0 1 0 -8 0z" fill="#3a7cc3"></path><path d="M1384 408L1384 360" stroke-width="2.67" stroke="#3a7cc3"></path><path d="M1380 408 a4 4 0 1 0 8 0 a4 4 0 1 0 -8 0zM1380 360 a4 4 0 1 0 8 0 a4 4 0 1 0 -8 0z" fill="#3a7cc3"></path><path d="M200 152L184 168L184 184L200 200" stroke-width="2.67" stroke="#3a7cc3"></path><path d="M196 152 a4 4 0 1 0 8 0 a4 4 0 1 0 -8 0zM196 200 a4 4 0 1 0 8 0 a4 4 0 1 0 -8 0z" fill="#3a7cc3"></path><path d="M1000 216L1000 280L1032 312L1032 360L1016 376L1000 376" stroke-width="2.67" stroke="#3a7cc3"></path><path d="M996 216 a4 4 0 1 0 8 0 a4 4 0 1 0 -8 0zM996 376 a4 4 0 1 0 8 0 a4 4 0 1 0 -8 0z" fill="#3a7cc3"></path><path d="M488 40L408 40" stroke-width="2.67" stroke="#3a7cc3"></path><path d="M484 40 a4 4 0 1 0 8 0 a4 4 0 1 0 -8 0zM404 40 a4 4 0 1 0 8 0 a4 4 0 1 0 -8 0z" fill="#3a7cc3"></path><path d="M376 136L376 152L408 184L408 232L392 248" stroke-width="2.67" stroke="#3a7cc3"></path><path d="M372 136 a4 4 0 1 0 8 0 a4 4 0 1 0 -8 0zM388 248 a4 4 0 1 0 8 0 a4 4 0 1 0 -8 0z" fill="#3a7cc3"></path><path d="M504 232L504 216L488 200" stroke-width="2.67" stroke="#3a7cc3"></path><path d="M500 232 a4 4 0 1 0 8 0 a4 4 0 1 0 -8 0zM484 200 a4 4 0 1 0 8 0 a4 4 0 1 0 -8 0z" fill="#3a7cc3"></path><path d="M936 504L952 488L952 472L968 456" stroke-width="2.67" stroke="#3a7cc3"></path><path d="M932 504 a4 4 0 1 0 8 0 a4 4 0 1 0 -8 0zM964 456 a4 4 0 1 0 8 0 a4 4 0 1 0 -8 0z" fill="#3a7cc3"></path><path d="M440 264L440 216L424 200L424 168L392 136" stroke-width="2.67" stroke="#3a7cc3"></path><path d="M436 264 a4 4 0 1 0 8 0 a4 4 0 1 0 -8 0zM388 136 a4 4 0 1 0 8 0 a4 4 0 1 0 -8 0z" fill="#3a7cc3"></path><path d="M536 440L488 440L456 472L456 504" stroke-width="2.67" stroke="#3a7cc3"></path><path d="M532 440 a4 4 0 1 0 8 0 a4 4 0 1 0 -8 0zM452 504 a4 4 0 1 0 8 0 a4 4 0 1 0 -8 0z" fill="#3a7cc3"></path><path d="M88 280L88 312L24 376" stroke-width="2.67" stroke="#3a7cc3"></path><path d="M84 280 a4 4 0 1 0 8 0 a4 4 0 1 0 -8 0zM20 376 a4 4 0 1 0 8 0 a4 4 0 1 0 -8 0z" fill="#3a7cc3"></path><path d="M488 56L504 40L536 40" stroke-width="2.67" stroke="#3a7cc3"></path><path d="M484 56 a4 4 0 1 0 8 0 a4 4 0 1 0 -8 0zM532 40 a4 4 0 1 0 8 0 a4 4 0 1 0 -8 0z" fill="#3a7cc3"></path><path d="M152 40L200 88L232 88" stroke-width="2.67" stroke="#3a7cc3"></path><path d="M148 40 a4 4 0 1 0 8 0 a4 4 0 1 0 -8 0zM228 88 a4 4 0 1 0 8 0 a4 4 0 1 0 -8 0z" fill="#3a7cc3"></path><path d="M456 248L488 280L488 296" stroke-width="2.67" stroke="#3a7cc3"></path><path d="M452 248 a4 4 0 1 0 8 0 a4 4 0 1 0 -8 0zM484 296 a4 4 0 1 0 8 0 a4 4 0 1 0 -8 0z" fill="#3a7cc3"></path><path d="M72 488L72 472L24 424" stroke-width="2.67" stroke="#3a7cc3"></path><path d="M68 488 a4 4 0 1 0 8 0 a4 4 0 1 0 -8 0zM20 424 a4 4 0 1 0 8 0 a4 4 0 1 0 -8 0z" fill="#3a7cc3"></path><path d="M1272 376L1256 392L1256 408" stroke-width="2.67" stroke="#3a7cc3"></path><path d="M1268 376 a4 4 0 1 0 8 0 a4 4 0 1 0 -8 0zM1252 408 a4 4 0 1 0 8 0 a4 4 0 1 0 -8 0z" fill="#3a7cc3"></path><path d="M984 72L984 88L968 104L952 104" stroke-width="2.67" stroke="#3a7cc3"></path><path d="M980 72 a4 4 0 1 0 8 0 a4 4 0 1 0 -8 0zM948 104 a4 4 0 1 0 8 0 a4 4 0 1 0 -8 0z" fill="#3a7cc3"></path><path d="M232 424L216 408L216 344" stroke-width="2.67" stroke="#3a7cc3"></path><path d="M228 424 a4 4 0 1 0 8 0 a4 4 0 1 0 -8 0zM212 344 a4 4 0 1 0 8 0 a4 4 0 1 0 -8 0z" fill="#3a7cc3"></path><path d="M56 200L56 184L24 152" stroke-width="2.67" stroke="#3a7cc3"></path><path d="M52 200 a4 4 0 1 0 8 0 a4 4 0 1 0 -8 0zM20 152 a4 4 0 1 0 8 0 a4 4 0 1 0 -8 0z" fill="#3a7cc3"></path><path d="M1288 280L1288 312" stroke-width="2.67" stroke="#3a7cc3"></path><path d="M1284 280 a4 4 0 1 0 8 0 a4 4 0 1 0 -8 0zM1284 312 a4 4 0 1 0 8 0 a4 4 0 1 0 -8 0z" fill="#3a7cc3"></path><path d="M184 24L280 24L296 8" stroke-width="2.67" stroke="#3a7cc3"></path><path d="M180 24 a4 4 0 1 0 8 0 a4 4 0 1 0 -8 0zM292 8 a4 4 0 1 0 8 0 a4 4 0 1 0 -8 0z" fill="#3a7cc3"></path><path d="M312 360L264 312" stroke-width="2.67" stroke="#3a7cc3"></path><path d="M308 360 a4 4 0 1 0 8 0 a4 4 0 1 0 -8 0zM260 312 a4 4 0 1 0 8 0 a4 4 0 1 0 -8 0z" fill="#3a7cc3"></path><path d="M248 184L200 184" stroke-width="2.67" stroke="#3a7cc3"></path><path d="M244 184 a4 4 0 1 0 8 0 a4 4 0 1 0 -8 0zM196 184 a4 4 0 1 0 8 0 a4 4 0 1 0 -8 0z" fill="#3a7cc3"></path><path d="M696 504L696 456L680 440" stroke-width="2.67" stroke="#3a7cc3"></path><path d="M692 504 a4 4 0 1 0 8 0 a4 4 0 1 0 -8 0zM676 440 a4 4 0 1 0 8 0 a4 4 0 1 0 -8 0z" fill="#3a7cc3"></path><path d="M360 296L360 408" stroke-width="2.67" stroke="#3a7cc3"></path><path d="M356 296 a4 4 0 1 0 8 0 a4 4 0 1 0 -8 0zM356 408 a4 4 0 1 0 8 0 a4 4 0 1 0 -8 0z" fill="#3a7cc3"></path><path d="M488 344L488 328L520 296L536 296" stroke-width="2.67" stroke="#3a7cc3"></path><path d="M484 344 a4 4 0 1 0 8 0 a4 4 0 1 0 -8 0zM532 296 a4 4 0 1 0 8 0 a4 4 0 1 0 -8 0z" fill="#3a7cc3"></path><path d="M184 280L184 312" stroke-width="2.67" stroke="#3a7cc3"></path><path d="M180 280 a4 4 0 1 0 8 0 a4 4 0 1 0 -8 0zM180 312 a4 4 0 1 0 8 0 a4 4 0 1 0 -8 0z" fill="#3a7cc3"></path><path d="M1160 120L1160 136L1144 152" stroke-width="2.67" stroke="#3a7cc3"></path><path d="M1156 120 a4 4 0 1 0 8 0 a4 4 0 1 0 -8 0zM1140 152 a4 4 0 1 0 8 0 a4 4 0 1 0 -8 0z" fill="#3a7cc3"></path><path d="M1368 408L1272 408" stroke-width="2.67" stroke="#3a7cc3"></path><path d="M1364 408 a4 4 0 1 0 8 0 a4 4 0 1 0 -8 0zM1268 408 a4 4 0 1 0 8 0 a4 4 0 1 0 -8 0z" fill="#3a7cc3"></path><path d="M840 408L808 376L792 376" stroke-width="2.67" stroke="#3a7cc3"></path><path d="M836 408 a4 4 0 1 0 8 0 a4 4 0 1 0 -8 0zM788 376 a4 4 0 1 0 8 0 a4 4 0 1 0 -8 0z" fill="#3a7cc3"></path><path d="M664 344L648 344L632 328L632 296" stroke-width="2.67" stroke="#3a7cc3"></path><path d="M660 344 a4 4 0 1 0 8 0 a4 4 0 1 0 -8 0zM628 296 a4 4 0 1 0 8 0 a4 4 0 1 0 -8 0z" fill="#3a7cc3"></path><path d="M632 360L600 392L600 408" stroke-width="2.67" stroke="#3a7cc3"></path><path d="M628 360 a4 4 0 1 0 8 0 a4 4 0 1 0 -8 0zM596 408 a4 4 0 1 0 8 0 a4 4 0 1 0 -8 0z" fill="#3a7cc3"></path><path d="M568 504L568 552" stroke-width="2.67" stroke="#3a7cc3"></path><path d="M564 504 a4 4 0 1 0 8 0 a4 4 0 1 0 -8 0zM564 552 a4 4 0 1 0 8 0 a4 4 0 1 0 -8 0z" fill="#3a7cc3"></path><path d="M664 56L664 72L712 120L712 136" stroke-width="2.67" stroke="#3a7cc3"></path><path d="M660 56 a4 4 0 1 0 8 0 a4 4 0 1 0 -8 0zM708 136 a4 4 0 1 0 8 0 a4 4 0 1 0 -8 0z" fill="#3a7cc3"></path><path d="M248 216L264 232L264 248" stroke-width="2.67" stroke="#3a7cc3"></path><path d="M244 216 a4 4 0 1 0 8 0 a4 4 0 1 0 -8 0zM260 248 a4 4 0 1 0 8 0 a4 4 0 1 0 -8 0z" fill="#3a7cc3"></path><path d="M296 328L312 344L328 344L344 360L344 408" stroke-width="2.67" stroke="#3a7cc3"></path><path d="M292 328 a4 4 0 1 0 8 0 a4 4 0 1 0 -8 0zM340 408 a4 4 0 1 0 8 0 a4 4 0 1 0 -8 0z" fill="#3a7cc3"></path><path d="M120 376L136 376L152 392L152 408L120 440L104 440" stroke-width="2.67" stroke="#3a7cc3"></path><path d="M116 376 a4 4 0 1 0 8 0 a4 4 0 1 0 -8 0zM100 440 a4 4 0 1 0 8 0 a4 4 0 1 0 -8 0z" fill="#3a7cc3"></path><path d="M376 200L344 200" stroke-width="2.67" stroke="#3a7cc3"></path><path d="M372 200 a4 4 0 1 0 8 0 a4 4 0 1 0 -8 0zM340 200 a4 4 0 1 0 8 0 a4 4 0 1 0 -8 0z" fill="#3a7cc3"></path><path d="M376 24L344 24" stroke-width="2.67" stroke="#3a7cc3"></path><path d="M372 24 a4 4 0 1 0 8 0 a4 4 0 1 0 -8 0zM340 24 a4 4 0 1 0 8 0 a4 4 0 1 0 -8 0z" fill="#3a7cc3"></path><path d="M552 120L536 136L520 136" stroke-width="2.67" stroke="#3a7cc3"></path><path d="M548 120 a4 4 0 1 0 8 0 a4 4 0 1 0 -8 0zM516 136 a4 4 0 1 0 8 0 a4 4 0 1 0 -8 0z" fill="#3a7cc3"></path><path d="M600 472L600 520" stroke-width="2.67" stroke="#3a7cc3"></path><path d="M596 472 a4 4 0 1 0 8 0 a4 4 0 1 0 -8 0zM596 520 a4 4 0 1 0 8 0 a4 4 0 1 0 -8 0z" fill="#3a7cc3"></path><path d="M1336 344L1368 312L1368 296L1352 280L1320 280L1288 248L1288 232" stroke-width="2.67" stroke="#3a7cc3"></path><path d="M1332 344 a4 4 0 1 0 8 0 a4 4 0 1 0 -8 0zM1284 232 a4 4 0 1 0 8 0 a4 4 0 1 0 -8 0z" fill="#3a7cc3"></path><path d="M920 200L920 136" stroke-width="2.67" stroke="#3a7cc3"></path><path d="M916 200 a4 4 0 1 0 8 0 a4 4 0 1 0 -8 0zM916 136 a4 4 0 1 0 8 0 a4 4 0 1 0 -8 0z" fill="#3a7cc3"></path><path d="M984 56L1032 56L1048 40" stroke-width="2.67" stroke="#3a7cc3"></path><path d="M980 56 a4 4 0 1 0 8 0 a4 4 0 1 0 -8 0zM1044 40 a4 4 0 1 0 8 0 a4 4 0 1 0 -8 0z" fill="#3a7cc3"></path><path d="M1080 552L1096 536L1096 520" stroke-width="2.67" stroke="#3a7cc3"></path><path d="M1076 552 a4 4 0 1 0 8 0 a4 4 0 1 0 -8 0zM1092 520 a4 4 0 1 0 8 0 a4 4 0 1 0 -8 0z" fill="#3a7cc3"></path><path d="M776 504L776 536" stroke-width="2.67" stroke="#3a7cc3"></path><path d="M772 504 a4 4 0 1 0 8 0 a4 4 0 1 0 -8 0zM772 536 a4 4 0 1 0 8 0 a4 4 0 1 0 -8 0z" fill="#3a7cc3"></path><path d="M1080 296L1080 216" stroke-width="2.67" stroke="#3a7cc3"></path><path d="M1076 296 a4 4 0 1 0 8 0 a4 4 0 1 0 -8 0zM1076 216 a4 4 0 1 0 8 0 a4 4 0 1 0 -8 0z" fill="#3a7cc3"></path><path d="M1112 424L1112 408L1144 376" stroke-width="2.67" stroke="#3a7cc3"></path><path d="M1108 424 a4 4 0 1 0 8 0 a4 4 0 1 0 -8 0zM1140 376 a4 4 0 1 0 8 0 a4 4 0 1 0 -8 0z" fill="#3a7cc3"></path><path d="M760 152L824 152" stroke-width="2.67" stroke="#3a7cc3"></path><path d="M756 152 a4 4 0 1 0 8 0 a4 4 0 1 0 -8 0zM820 152 a4 4 0 1 0 8 0 a4 4 0 1 0 -8 0z" fill="#3a7cc3"></path><path d="M392 440L376 440L344 472" stroke-width="2.67" stroke="#3a7cc3"></path><path d="M388 440 a4 4 0 1 0 8 0 a4 4 0 1 0 -8 0zM340 472 a4 4 0 1 0 8 0 a4 4 0 1 0 -8 0z" fill="#3a7cc3"></path><path d="M856 24L840 8L808 8" stroke-width="2.67" stroke="#3a7cc3"></path><path d="M852 24 a4 4 0 1 0 8 0 a4 4 0 1 0 -8 0zM804 8 a4 4 0 1 0 8 0 a4 4 0 1 0 -8 0z" fill="#3a7cc3"></path><path d="M728 424L776 424" stroke-width="2.67" stroke="#3a7cc3"></path><path d="M724 424 a4 4 0 1 0 8 0 a4 4 0 1 0 -8 0zM772 424 a4 4 0 1 0 8 0 a4 4 0 1 0 -8 0z" fill="#3a7cc3"></path><path d="M1224 56L1240 40L1256 40L1272 56" stroke-width="2.67" stroke="#3a7cc3"></path><path d="M1220 56 a4 4 0 1 0 8 0 a4 4 0 1 0 -8 0zM1268 56 a4 4 0 1 0 8 0 a4 4 0 1 0 -8 0z" fill="#3a7cc3"></path><path d="M728 488L712 472L712 456L728 440L744 440L760 456" stroke-width="2.67" stroke="#3a7cc3"></path><path d="M724 488 a4 4 0 1 0 8 0 a4 4 0 1 0 -8 0zM756 456 a4 4 0 1 0 8 0 a4 4 0 1 0 -8 0z" fill="#3a7cc3"></path><path d="M344 536L344 520L488 376" stroke-width="2.67" stroke="#3a7cc3"></path><path d="M340 536 a4 4 0 1 0 8 0 a4 4 0 1 0 -8 0zM484 376 a4 4 0 1 0 8 0 a4 4 0 1 0 -8 0z" fill="#3a7cc3"></path><path d="M1064 216L1064 344L1080 360" stroke-width="2.67" stroke="#3a7cc3"></path><path d="M1060 216 a4 4 0 1 0 8 0 a4 4 0 1 0 -8 0zM1076 360 a4 4 0 1 0 8 0 a4 4 0 1 0 -8 0z" fill="#3a7cc3"></path><path d="M184 440L152 440" stroke-width="2.67" stroke="#3a7cc3"></path><path d="M180 440 a4 4 0 1 0 8 0 a4 4 0 1 0 -8 0zM148 440 a4 4 0 1 0 8 0 a4 4 0 1 0 -8 0z" fill="#3a7cc3"></path><path d="M24 440L56 472L56 552" stroke-width="2.67" stroke="#3a7cc3"></path><path d="M20 440 a4 4 0 1 0 8 0 a4 4 0 1 0 -8 0zM52 552 a4 4 0 1 0 8 0 a4 4 0 1 0 -8 0z" fill="#3a7cc3"></path><path d="M24 344L24 296L40 280L56 280L72 296L72 312L40 344" stroke-width="2.67" stroke="#3a7cc3"></path><path d="M20 344 a4 4 0 1 0 8 0 a4 4 0 1 0 -8 0zM36 344 a4 4 0 1 0 8 0 a4 4 0 1 0 -8 0z" fill="#3a7cc3"></path><path d="M680 232L680 216L664 200L648 200" stroke-width="2.67" stroke="#3a7cc3"></path><path d="M676 232 a4 4 0 1 0 8 0 a4 4 0 1 0 -8 0zM644 200 a4 4 0 1 0 8 0 a4 4 0 1 0 -8 0z" fill="#3a7cc3"></path><path d="M264 40L216 40" stroke-width="2.67" stroke="#3a7cc3"></path><path d="M260 40 a4 4 0 1 0 8 0 a4 4 0 1 0 -8 0zM212 40 a4 4 0 1 0 8 0 a4 4 0 1 0 -8 0z" fill="#3a7cc3"></path><path d="M1240 168L1256 152L1256 136" stroke-width="2.67" stroke="#3a7cc3"></path><path d="M1236 168 a4 4 0 1 0 8 0 a4 4 0 1 0 -8 0zM1252 136 a4 4 0 1 0 8 0 a4 4 0 1 0 -8 0z" fill="#3a7cc3"></path><path d="M40 504L40 472L24 456" stroke-width="2.67" stroke="#3a7cc3"></path><path d="M36 504 a4 4 0 1 0 8 0 a4 4 0 1 0 -8 0zM20 456 a4 4 0 1 0 8 0 a4 4 0 1 0 -8 0z" fill="#3a7cc3"></path><path d="M744 248L744 232L728 216L712 216" stroke-width="2.67" stroke="#3a7cc3"></path><path d="M740 248 a4 4 0 1 0 8 0 a4 4 0 1 0 -8 0zM708 216 a4 4 0 1 0 8 0 a4 4 0 1 0 -8 0z" fill="#3a7cc3"></path><path d="M168 88L168 104L152 120" stroke-width="2.67" stroke="#3a7cc3"></path><path d="M164 88 a4 4 0 1 0 8 0 a4 4 0 1 0 -8 0zM148 120 a4 4 0 1 0 8 0 a4 4 0 1 0 -8 0z" fill="#3a7cc3"></path><path d="M1240 440L1208 408L1208 392" stroke-width="2.67" stroke="#3a7cc3"></path><path d="M1236 440 a4 4 0 1 0 8 0 a4 4 0 1 0 -8 0zM1204 392 a4 4 0 1 0 8 0 a4 4 0 1 0 -8 0z" fill="#3a7cc3"></path><path d="M408 72L456 120L456 136" stroke-width="2.67" stroke="#3a7cc3"></path><path d="M404 72 a4 4 0 1 0 8 0 a4 4 0 1 0 -8 0zM452 136 a4 4 0 1 0 8 0 a4 4 0 1 0 -8 0z" fill="#3a7cc3"></path><path d="M360 520L392 552" stroke-width="2.67" stroke="#3a7cc3"></path><path d="M356 520 a4 4 0 1 0 8 0 a4 4 0 1 0 -8 0zM388 552 a4 4 0 1 0 8 0 a4 4 0 1 0 -8 0z" fill="#3a7cc3"></path><path d="M1144 296L1128 280L1128 248" stroke-width="2.67" stroke="#3a7cc3"></path><path d="M1140 296 a4 4 0 1 0 8 0 a4 4 0 1 0 -8 0zM1124 248 a4 4 0 1 0 8 0 a4 4 0 1 0 -8 0z" fill="#3a7cc3"></path><path d="M520 456L552 456" stroke-width="2.67" stroke="#3a7cc3"></path><path d="M516 456 a4 4 0 1 0 8 0 a4 4 0 1 0 -8 0zM548 456 a4 4 0 1 0 8 0 a4 4 0 1 0 -8 0z" fill="#3a7cc3"></path><path d="M1320 248L1352 216L1368 216L1384 232L1384 248L1368 264L1368 280" stroke-width="2.67" stroke="#3a7cc3"></path><path d="M1316 248 a4 4 0 1 0 8 0 a4 4 0 1 0 -8 0zM1364 280 a4 4 0 1 0 8 0 a4 4 0 1 0 -8 0z" fill="#3a7cc3"></path><path d="M504 328L520 328L536 312" stroke-width="2.67" stroke="#3a7cc3"></path><path d="M500 328 a4 4 0 1 0 8 0 a4 4 0 1 0 -8 0zM532 312 a4 4 0 1 0 8 0 a4 4 0 1 0 -8 0z" fill="#3a7cc3"></path><path d="M184 120L200 120L248 168" stroke-width="2.67" stroke="#3a7cc3"></path><path d="M180 120 a4 4 0 1 0 8 0 a4 4 0 1 0 -8 0zM244 168 a4 4 0 1 0 8 0 a4 4 0 1 0 -8 0z" fill="#3a7cc3"></path><path d="M1320 312L1320 376" stroke-width="2.67" stroke="#3a7cc3"></path><path d="M1316 312 a4 4 0 1 0 8 0 a4 4 0 1 0 -8 0zM1316 376 a4 4 0 1 0 8 0 a4 4 0 1 0 -8 0z" fill="#3a7cc3"></path><path d="M472 296L472 280L456 264" stroke-width="2.67" stroke="#3a7cc3"></path><path d="M468 296 a4 4 0 1 0 8 0 a4 4 0 1 0 -8 0zM452 264 a4 4 0 1 0 8 0 a4 4 0 1 0 -8 0z" fill="#3a7cc3"></path><path d="M1240 344L1256 360L1256 376L1240 392" stroke-width="2.67" stroke="#3a7cc3"></path><path d="M1236 344 a4 4 0 1 0 8 0 a4 4 0 1 0 -8 0zM1236 392 a4 4 0 1 0 8 0 a4 4 0 1 0 -8 0z" fill="#3a7cc3"></path><path d="M1048 472L1048 504" stroke-width="2.67" stroke="#3a7cc3"></path><path d="M1044 472 a4 4 0 1 0 8 0 a4 4 0 1 0 -8 0zM1044 504 a4 4 0 1 0 8 0 a4 4 0 1 0 -8 0z" fill="#3a7cc3"></path><path d="M760 8L712 8" stroke-width="2.67" stroke="#3a7cc3"></path><path d="M756 8 a4 4 0 1 0 8 0 a4 4 0 1 0 -8 0zM708 8 a4 4 0 1 0 8 0 a4 4 0 1 0 -8 0z" fill="#3a7cc3"></path><path d="M968 264L952 248L952 216" stroke-width="2.67" stroke="#3a7cc3"></path><path d="M964 264 a4 4 0 1 0 8 0 a4 4 0 1 0 -8 0zM948 216 a4 4 0 1 0 8 0 a4 4 0 1 0 -8 0z" fill="#3a7cc3"></path><path d="M536 488L520 504L472 504" stroke-width="2.67" stroke="#3a7cc3"></path><path d="M532 488 a4 4 0 1 0 8 0 a4 4 0 1 0 -8 0zM468 504 a4 4 0 1 0 8 0 a4 4 0 1 0 -8 0z" fill="#3a7cc3"></path><path d="M536 184L536 152" stroke-width="2.67" stroke="#3a7cc3"></path><path d="M532 184 a4 4 0 1 0 8 0 a4 4 0 1 0 -8 0zM532 152 a4 4 0 1 0 8 0 a4 4 0 1 0 -8 0z" fill="#3a7cc3"></path><path d="M680 408L696 392L696 376" stroke-width="2.67" stroke="#3a7cc3"></path><path d="M676 408 a4 4 0 1 0 8 0 a4 4 0 1 0 -8 0zM692 376 a4 4 0 1 0 8 0 a4 4 0 1 0 -8 0z" fill="#3a7cc3"></path><path d="M1160 456L1128 456" stroke-width="2.67" stroke="#3a7cc3"></path><path d="M1156 456 a4 4 0 1 0 8 0 a4 4 0 1 0 -8 0zM1124 456 a4 4 0 1 0 8 0 a4 4 0 1 0 -8 0z" fill="#3a7cc3"></path><path d="M584 56L584 24" stroke-width="2.67" stroke="#3a7cc3"></path><path d="M580 56 a4 4 0 1 0 8 0 a4 4 0 1 0 -8 0zM580 24 a4 4 0 1 0 8 0 a4 4 0 1 0 -8 0z" fill="#3a7cc3"></path><path d="M392 328L424 360" stroke-width="2.67" stroke="#3a7cc3"></path><path d="M388 328 a4 4 0 1 0 8 0 a4 4 0 1 0 -8 0zM420 360 a4 4 0 1 0 8 0 a4 4 0 1 0 -8 0z" fill="#3a7cc3"></path><path d="M456 552L440 552L424 536" stroke-width="2.67" stroke="#3a7cc3"></path><path d="M452 552 a4 4 0 1 0 8 0 a4 4 0 1 0 -8 0zM420 536 a4 4 0 1 0 8 0 a4 4 0 1 0 -8 0z" fill="#3a7cc3"></path><path d="M88 120L72 104L56 104" stroke-width="2.67" stroke="#3a7cc3"></path><path d="M84 120 a4 4 0 1 0 8 0 a4 4 0 1 0 -8 0zM52 104 a4 4 0 1 0 8 0 a4 4 0 1 0 -8 0z" fill="#3a7cc3"></path><path d="M376 504L392 520L392 536" stroke-width="2.67" stroke="#3a7cc3"></path><path d="M372 504 a4 4 0 1 0 8 0 a4 4 0 1 0 -8 0zM388 536 a4 4 0 1 0 8 0 a4 4 0 1 0 -8 0z" fill="#3a7cc3"></path><path d="M1320 24L1336 40L1352 40L1368 24L1368 8" stroke-width="2.67" stroke="#3a7cc3"></path><path d="M1316 24 a4 4 0 1 0 8 0 a4 4 0 1 0 -8 0zM1364 8 a4 4 0 1 0 8 0 a4 4 0 1 0 -8 0z" fill="#3a7cc3"></path><path d="M184 488L168 504L152 504" stroke-width="2.67" stroke="#3a7cc3"></path><path d="M180 488 a4 4 0 1 0 8 0 a4 4 0 1 0 -8 0zM148 504 a4 4 0 1 0 8 0 a4 4 0 1 0 -8 0z" fill="#3a7cc3"></path><path d="M1224 184L1192 152L1176 152" stroke-width="2.67" stroke="#3a7cc3"></path><path d="M1220 184 a4 4 0 1 0 8 0 a4 4 0 1 0 -8 0zM1172 152 a4 4 0 1 0 8 0 a4 4 0 1 0 -8 0z" fill="#3a7cc3"></path><path d="M1304 136L1320 120L1336 120L1352 136L1352 152" stroke-width="2.67" stroke="#3a7cc3"></path><path d="M1300 136 a4 4 0 1 0 8 0 a4 4 0 1 0 -8 0zM1348 152 a4 4 0 1 0 8 0 a4 4 0 1 0 -8 0z" fill="#3a7cc3"></path><path d="M760 248L808 248" stroke-width="2.67" stroke="#3a7cc3"></path><path d="M756 248 a4 4 0 1 0 8 0 a4 4 0 1 0 -8 0zM804 248 a4 4 0 1 0 8 0 a4 4 0 1 0 -8 0z" fill="#3a7cc3"></path><path d="M248 360L264 344L264 328" stroke-width="2.67" stroke="#3a7cc3"></path><path d="M244 360 a4 4 0 1 0 8 0 a4 4 0 1 0 -8 0zM260 328 a4 4 0 1 0 8 0 a4 4 0 1 0 -8 0z" fill="#3a7cc3"></path><path d="M1208 520L1160 520" stroke-width="2.67" stroke="#3a7cc3"></path><path d="M1204 520 a4 4 0 1 0 8 0 a4 4 0 1 0 -8 0zM1156 520 a4 4 0 1 0 8 0 a4 4 0 1 0 -8 0z" fill="#3a7cc3"></path><path d="M744 24L776 24L792 40" stroke-width="2.67" stroke="#3a7cc3"></path><path d="M740 24 a4 4 0 1 0 8 0 a4 4 0 1 0 -8 0zM788 40 a4 4 0 1 0 8 0 a4 4 0 1 0 -8 0z" fill="#3a7cc3"></path><path d="M856 120L840 120L824 104L776 104" stroke-width="2.67" stroke="#3a7cc3"></path><path d="M852 120 a4 4 0 1 0 8 0 a4 4 0 1 0 -8 0zM772 104 a4 4 0 1 0 8 0 a4 4 0 1 0 -8 0z" fill="#3a7cc3"></path><path d="M1160 408L1128 408" stroke-width="2.67" stroke="#3a7cc3"></path><path d="M1156 408 a4 4 0 1 0 8 0 a4 4 0 1 0 -8 0zM1124 408 a4 4 0 1 0 8 0 a4 4 0 1 0 -8 0z" fill="#3a7cc3"></path><path d="M344 312L344 344" stroke-width="2.67" stroke="#3a7cc3"></path><path d="M340 312 a4 4 0 1 0 8 0 a4 4 0 1 0 -8 0zM340 344 a4 4 0 1 0 8 0 a4 4 0 1 0 -8 0z" fill="#3a7cc3"></path><path d="M584 184L584 232L600 248L600 344" stroke-width="2.67" stroke="#3a7cc3"></path><path d="M580 184 a4 4 0 1 0 8 0 a4 4 0 1 0 -8 0zM596 344 a4 4 0 1 0 8 0 a4 4 0 1 0 -8 0z" fill="#3a7cc3"></path><path d="M1080 312L1080 344" stroke-width="2.67" stroke="#3a7cc3"></path><path d="M1076 312 a4 4 0 1 0 8 0 a4 4 0 1 0 -8 0zM1076 344 a4 4 0 1 0 8 0 a4 4 0 1 0 -8 0z" fill="#3a7cc3"></path><path d="M712 72L712 104L728 120" stroke-width="2.67" stroke="#3a7cc3"></path><path d="M708 72 a4 4 0 1 0 8 0 a4 4 0 1 0 -8 0zM724 120 a4 4 0 1 0 8 0 a4 4 0 1 0 -8 0z" fill="#3a7cc3"></path><path d="M1192 136L1240 136" stroke-width="2.67" stroke="#3a7cc3"></path><path d="M1188 136 a4 4 0 1 0 8 0 a4 4 0 1 0 -8 0zM1236 136 a4 4 0 1 0 8 0 a4 4 0 1 0 -8 0z" fill="#3a7cc3"></path><path d="M232 360L232 408" stroke-width="2.67" stroke="#3a7cc3"></path><path d="M228 360 a4 4 0 1 0 8 0 a4 4 0 1 0 -8 0zM228 408 a4 4 0 1 0 8 0 a4 4 0 1 0 -8 0z" fill="#3a7cc3"></path><path d="M712 488L728 504L744 504L760 488" stroke-width="2.67" stroke="#3a7cc3"></path><path d="M708 488 a4 4 0 1 0 8 0 a4 4 0 1 0 -8 0zM756 488 a4 4 0 1 0 8 0 a4 4 0 1 0 -8 0z" fill="#3a7cc3"></path><path d="M344 552L376 552" stroke-width="2.67" stroke="#3a7cc3"></path><path d="M340 552 a4 4 0 1 0 8 0 a4 4 0 1 0 -8 0zM372 552 a4 4 0 1 0 8 0 a4 4 0 1 0 -8 0z" fill="#3a7cc3"></path><path d="M552 520L552 552" stroke-width="2.67" stroke="#3a7cc3"></path><path d="M548 520 a4 4 0 1 0 8 0 a4 4 0 1 0 -8 0zM548 552 a4 4 0 1 0 8 0 a4 4 0 1 0 -8 0z" fill="#3a7cc3"></path><path d="M104 392L120 408L136 408" stroke-width="2.67" stroke="#3a7cc3"></path><path d="M100 392 a4 4 0 1 0 8 0 a4 4 0 1 0 -8 0zM132 408 a4 4 0 1 0 8 0 a4 4 0 1 0 -8 0z" fill="#3a7cc3"></path><path d="M408 264L424 280L440 280" stroke-width="2.67" stroke="#3a7cc3"></path><path d="M404 264 a4 4 0 1 0 8 0 a4 4 0 1 0 -8 0zM436 280 a4 4 0 1 0 8 0 a4 4 0 1 0 -8 0z" fill="#3a7cc3"></path><path d="M936 536L936 520L952 504L968 504" stroke-width="2.67" stroke="#3a7cc3"></path><path d="M932 536 a4 4 0 1 0 8 0 a4 4 0 1 0 -8 0zM964 504 a4 4 0 1 0 8 0 a4 4 0 1 0 -8 0z" fill="#3a7cc3"></path><path d="M328 168L328 120" stroke-width="2.67" stroke="#3a7cc3"></path><path d="M324 168 a4 4 0 1 0 8 0 a4 4 0 1 0 -8 0zM324 120 a4 4 0 1 0 8 0 a4 4 0 1 0 -8 0z" fill="#3a7cc3"></path><path d="M728 392L744 392L760 408" stroke-width="2.67" stroke="#3a7cc3"></path><path d="M724 392 a4 4 0 1 0 8 0 a4 4 0 1 0 -8 0zM756 408 a4 4 0 1 0 8 0 a4 4 0 1 0 -8 0z" fill="#3a7cc3"></path><path d="M1272 520L1224 520" stroke-width="2.67" stroke="#3a7cc3"></path><path d="M1268 520 a4 4 0 1 0 8 0 a4 4 0 1 0 -8 0zM1220 520 a4 4 0 1 0 8 0 a4 4 0 1 0 -8 0z" fill="#3a7cc3"></path><path d="M24 216L24 168" stroke-width="2.67" stroke="#3a7cc3"></path><path d="M20 216 a4 4 0 1 0 8 0 a4 4 0 1 0 -8 0zM20 168 a4 4 0 1 0 8 0 a4 4 0 1 0 -8 0z" fill="#3a7cc3"></path><path d="M1016 24L1000 40L968 40" stroke-width="2.67" stroke="#3a7cc3"></path><path d="M1012 24 a4 4 0 1 0 8 0 a4 4 0 1 0 -8 0zM964 40 a4 4 0 1 0 8 0 a4 4 0 1 0 -8 0z" fill="#3a7cc3"></path><path d="M1352 232L1352 264" stroke-width="2.67" stroke="#3a7cc3"></path><path d="M1348 232 a4 4 0 1 0 8 0 a4 4 0 1 0 -8 0zM1348 264 a4 4 0 1 0 8 0 a4 4 0 1 0 -8 0z" fill="#3a7cc3"></path><path d="M136 328L136 280" stroke-width="2.67" stroke="#3a7cc3"></path><path d="M132 328 a4 4 0 1 0 8 0 a4 4 0 1 0 -8 0zM132 280 a4 4 0 1 0 8 0 a4 4 0 1 0 -8 0z" fill="#3a7cc3"></path><path d="M392 424L408 408L424 408" stroke-width="2.67" stroke="#3a7cc3"></path><path d="M388 424 a4 4 0 1 0 8 0 a4 4 0 1 0 -8 0zM420 408 a4 4 0 1 0 8 0 a4 4 0 1 0 -8 0z" fill="#3a7cc3"></path><path d="M296 136L296 104" stroke-width="2.67" stroke="#3a7cc3"></path><path d="M292 136 a4 4 0 1 0 8 0 a4 4 0 1 0 -8 0zM292 104 a4 4 0 1 0 8 0 a4 4 0 1 0 -8 0z" fill="#3a7cc3"></path><path d="M392 88L440 136" stroke-width="2.67" stroke="#3a7cc3"></path><path d="M388 88 a4 4 0 1 0 8 0 a4 4 0 1 0 -8 0zM436 136 a4 4 0 1 0 8 0 a4 4 0 1 0 -8 0z" fill="#3a7cc3"></path><path d="M1160 552L1192 552" stroke-width="2.67" stroke="#3a7cc3"></path><path d="M1156 552 a4 4 0 1 0 8 0 a4 4 0 1 0 -8 0zM1188 552 a4 4 0 1 0 8 0 a4 4 0 1 0 -8 0z" fill="#3a7cc3"></path><path d="M792 280L744 280" stroke-width="2.67" stroke="#3a7cc3"></path><path d="M788 280 a4 4 0 1 0 8 0 a4 4 0 1 0 -8 0zM740 280 a4 4 0 1 0 8 0 a4 4 0 1 0 -8 0z" fill="#3a7cc3"></path><path d="M184 520L216 552" stroke-width="2.67" stroke="#3a7cc3"></path><path d="M180 520 a4 4 0 1 0 8 0 a4 4 0 1 0 -8 0zM212 552 a4 4 0 1 0 8 0 a4 4 0 1 0 -8 0z" fill="#3a7cc3"></path><path d="M664 248L664 216" stroke-width="2.67" stroke="#3a7cc3"></path><path d="M660 248 a4 4 0 1 0 8 0 a4 4 0 1 0 -8 0zM660 216 a4 4 0 1 0 8 0 a4 4 0 1 0 -8 0z" fill="#3a7cc3"></path><path d="M392 376L392 344" stroke-width="2.67" stroke="#3a7cc3"></path><path d="M388 376 a4 4 0 1 0 8 0 a4 4 0 1 0 -8 0zM388 344 a4 4 0 1 0 8 0 a4 4 0 1 0 -8 0z" fill="#3a7cc3"></path><path d="M360 472L376 472L392 456" stroke-width="2.67" stroke="#3a7cc3"></path><path d="M356 472 a4 4 0 1 0 8 0 a4 4 0 1 0 -8 0zM388 456 a4 4 0 1 0 8 0 a4 4 0 1 0 -8 0z" fill="#3a7cc3"></path><path d="M1240 24L1192 24" stroke-width="2.67" stroke="#3a7cc3"></path><path d="M1236 24 a4 4 0 1 0 8 0 a4 4 0 1 0 -8 0zM1188 24 a4 4 0 1 0 8 0 a4 4 0 1 0 -8 0z" fill="#3a7cc3"></path><path d="M712 408L696 424L696 440" stroke-width="2.67" stroke="#3a7cc3"></path><path d="M708 408 a4 4 0 1 0 8 0 a4 4 0 1 0 -8 0zM692 440 a4 4 0 1 0 8 0 a4 4 0 1 0 -8 0z" fill="#3a7cc3"></path><path d="M824 40L856 40" stroke-width="2.67" stroke="#3a7cc3"></path><path d="M820 40 a4 4 0 1 0 8 0 a4 4 0 1 0 -8 0zM852 40 a4 4 0 1 0 8 0 a4 4 0 1 0 -8 0z" fill="#3a7cc3"></path><path d="M920 312L920 280" stroke-width="2.67" stroke="#3a7cc3"></path><path d="M916 312 a4 4 0 1 0 8 0 a4 4 0 1 0 -8 0zM916 280 a4 4 0 1 0 8 0 a4 4 0 1 0 -8 0z" fill="#3a7cc3"></path><path d="M184 504L216 504" stroke-width="2.67" stroke="#3a7cc3"></path><path d="M180 504 a4 4 0 1 0 8 0 a4 4 0 1 0 -8 0zM212 504 a4 4 0 1 0 8 0 a4 4 0 1 0 -8 0z" fill="#3a7cc3"></path><path d="M1208 248L1208 216" stroke-width="2.67" stroke="#3a7cc3"></path><path d="M1204 248 a4 4 0 1 0 8 0 a4 4 0 1 0 -8 0zM1204 216 a4 4 0 1 0 8 0 a4 4 0 1 0 -8 0z" fill="#3a7cc3"></path><path d="M744 296L808 296L824 280" stroke-width="2.67" stroke="#3a7cc3"></path><path d="M740 296 a4 4 0 1 0 8 0 a4 4 0 1 0 -8 0zM820 280 a4 4 0 1 0 8 0 a4 4 0 1 0 -8 0z" fill="#3a7cc3"></path><path d="M504 552L520 536L536 536" stroke-width="2.67" stroke="#3a7cc3"></path><path d="M500 552 a4 4 0 1 0 8 0 a4 4 0 1 0 -8 0zM532 536 a4 4 0 1 0 8 0 a4 4 0 1 0 -8 0z" fill="#3a7cc3"></path><path d="M1000 296L1000 312L1016 328L1016 344" stroke-width="2.67" stroke="#3a7cc3"></path><path d="M996 296 a4 4 0 1 0 8 0 a4 4 0 1 0 -8 0zM1012 344 a4 4 0 1 0 8 0 a4 4 0 1 0 -8 0z" fill="#3a7cc3"></path><path d="M1240 376L1240 360L1224 344L1224 328" stroke-width="2.67" stroke="#3a7cc3"></path><path d="M1236 376 a4 4 0 1 0 8 0 a4 4 0 1 0 -8 0zM1220 328 a4 4 0 1 0 8 0 a4 4 0 1 0 -8 0z" fill="#3a7cc3"></path><path d="M1224 264L1240 280L1240 296" stroke-width="2.67" stroke="#3a7cc3"></path><path d="M1220 264 a4 4 0 1 0 8 0 a4 4 0 1 0 -8 0zM1236 296 a4 4 0 1 0 8 0 a4 4 0 1 0 -8 0z" fill="#3a7cc3"></path><path d="M264 392L280 408L280 424L264 440" stroke-width="2.67" stroke="#3a7cc3"></path><path d="M260 392 a4 4 0 1 0 8 0 a4 4 0 1 0 -8 0zM260 440 a4 4 0 1 0 8 0 a4 4 0 1 0 -8 0z" fill="#3a7cc3"></path><path d="M1288 88L1256 88" stroke-width="2.67" stroke="#3a7cc3"></path><path d="M1284 88 a4 4 0 1 0 8 0 a4 4 0 1 0 -8 0zM1252 88 a4 4 0 1 0 8 0 a4 4 0 1 0 -8 0z" fill="#3a7cc3"></path><path d="M296 408L312 392L312 376" stroke-width="2.67" stroke="#3a7cc3"></path><path d="M292 408 a4 4 0 1 0 8 0 a4 4 0 1 0 -8 0zM308 376 a4 4 0 1 0 8 0 a4 4 0 1 0 -8 0z" fill="#3a7cc3"></path><path d="M472 536L504 536" stroke-width="2.67" stroke="#3a7cc3"></path><path d="M468 536 a4 4 0 1 0 8 0 a4 4 0 1 0 -8 0zM500 536 a4 4 0 1 0 8 0 a4 4 0 1 0 -8 0z" fill="#3a7cc3"></path><path d="M488 248L488 216" stroke-width="2.67" stroke="#3a7cc3"></path><path d="M484 248 a4 4 0 1 0 8 0 a4 4 0 1 0 -8 0zM484 216 a4 4 0 1 0 8 0 a4 4 0 1 0 -8 0z" fill="#3a7cc3"></path><path d="M424 264L424 216" stroke-width="2.67" stroke="#3a7cc3"></path><path d="M420 264 a4 4 0 1 0 8 0 a4 4 0 1 0 -8 0zM420 216 a4 4 0 1 0 8 0 a4 4 0 1 0 -8 0z" fill="#3a7cc3"></path><path d="M1400 40L1384 56L1368 56" stroke-width="2.67" stroke="#3a7cc3"></path><path d="M1396 40 a4 4 0 1 0 8 0 a4 4 0 1 0 -8 0zM1364 56 a4 4 0 1 0 8 0 a4 4 0 1 0 -8 0z" fill="#3a7cc3"></path><path d="M1336 216L1304 216" stroke-width="2.67" stroke="#3a7cc3"></path><path d="M1332 216 a4 4 0 1 0 8 0 a4 4 0 1 0 -8 0zM1300 216 a4 4 0 1 0 8 0 a4 4 0 1 0 -8 0z" fill="#3a7cc3"></path><path d="M584 280L584 344" stroke-width="2.67" stroke="#3a7cc3"></path><path d="M580 280 a4 4 0 1 0 8 0 a4 4 0 1 0 -8 0zM580 344 a4 4 0 1 0 8 0 a4 4 0 1 0 -8 0z" fill="#3a7cc3"></path><path d="M1128 376L1112 360L1112 344" stroke-width="2.67" stroke="#3a7cc3"></path><path d="M1124 376 a4 4 0 1 0 8 0 a4 4 0 1 0 -8 0zM1108 344 a4 4 0 1 0 8 0 a4 4 0 1 0 -8 0z" fill="#3a7cc3"></path><path d="M8 232L24 248L24 264" stroke-width="2.67" stroke="#3a7cc3"></path><path d="M4 232 a4 4 0 1 0 8 0 a4 4 0 1 0 -8 0zM20 264 a4 4 0 1 0 8 0 a4 4 0 1 0 -8 0z" fill="#3a7cc3"></path><path d="M1336 8L1304 8" stroke-width="2.67" stroke="#3a7cc3"></path><path d="M1332 8 a4 4 0 1 0 8 0 a4 4 0 1 0 -8 0zM1300 8 a4 4 0 1 0 8 0 a4 4 0 1 0 -8 0z" fill="#3a7cc3"></path></g></g><defs><mask id="SvgjsMask1310"><rect width="1400" height="560" fill="#ffffff"></rect></mask><mask id="SvgjsMask1311"><rect width="1400" height="560" fill="white"></rect><path d="M86 200 a2 2 0 1 0 4 0 a2 2 0 1 0 -4 0zM6 8 a2 2 0 1 0 4 0 a2 2 0 1 0 -4 0z" fill="black"></path><path d="M294 504 a2 2 0 1 0 4 0 a2 2 0 1 0 -4 0zM550 200 a2 2 0 1 0 4 0 a2 2 0 1 0 -4 0z" fill="black"></path><path d="M1398 200 a2 2 0 1 0 4 0 a2 2 0 1 0 -4 0zM1398 504 a2 2 0 1 0 4 0 a2 2 0 1 0 -4 0z" fill="black"></path><path d="M230 296 a2 2 0 1 0 4 0 a2 2 0 1 0 -4 0zM38 40 a2 2 0 1 0 4 0 a2 2 0 1 0 -4 0z" fill="black"></path><path d="M1142 120 a2 2 0 1 0 4 0 a2 2 0 1 0 -4 0zM838 152 a2 2 0 1 0 4 0 a2 2 0 1 0 -4 0z" fill="black"></path><path d="M1014 504 a2 2 0 1 0 4 0 a2 2 0 1 0 -4 0zM710 552 a2 2 0 1 0 4 0 a2 2 0 1 0 -4 0z" fill="black"></path><path d="M102 328 a2 2 0 1 0 4 0 a2 2 0 1 0 -4 0zM230 552 a2 2 0 1 0 4 0 a2 2 0 1 0 -4 0z" fill="black"></path><path d="M1078 504 a2 2 0 1 0 4 0 a2 2 0 1 0 -4 0zM1382 504 a2 2 0 1 0 4 0 a2 2 0 1 0 -4 0z" fill="black"></path><path d="M886 392 a2 2 0 1 0 4 0 a2 2 0 1 0 -4 0zM790 536 a2 2 0 1 0 4 0 a2 2 0 1 0 -4 0z" fill="black"></path><path d="M374 376 a2 2 0 1 0 4 0 a2 2 0 1 0 -4 0zM166 72 a2 2 0 1 0 4 0 a2 2 0 1 0 -4 0z" fill="black"></path><path d="M422 520 a2 2 0 1 0 4 0 a2 2 0 1 0 -4 0zM566 328 a2 2 0 1 0 4 0 a2 2 0 1 0 -4 0z" fill="black"></path><path d="M678 184 a2 2 0 1 0 4 0 a2 2 0 1 0 -4 0zM966 8 a2 2 0 1 0 4 0 a2 2 0 1 0 -4 0z" fill="black"></path><path d="M1158 104 a2 2 0 1 0 4 0 a2 2 0 1 0 -4 0zM1046 8 a2 2 0 1 0 4 0 a2 2 0 1 0 -4 0z" fill="black"></path><path d="M1270 200 a2 2 0 1 0 4 0 a2 2 0 1 0 -4 0zM1254 8 a2 2 0 1 0 4 0 a2 2 0 1 0 -4 0z" fill="black"></path><path d="M694 8 a2 2 0 1 0 4 0 a2 2 0 1 0 -4 0zM934 8 a2 2 0 1 0 4 0 a2 2 0 1 0 -4 0z" fill="black"></path><path d="M1094 168 a2 2 0 1 0 4 0 a2 2 0 1 0 -4 0zM1110 472 a2 2 0 1 0 4 0 a2 2 0 1 0 -4 0z" fill="black"></path><path d="M502 200 a2 2 0 1 0 4 0 a2 2 0 1 0 -4 0zM694 24 a2 2 0 1 0 4 0 a2 2 0 1 0 -4 0z" fill="black"></path><path d="M934 408 a2 2 0 1 0 4 0 a2 2 0 1 0 -4 0zM870 536 a2 2 0 1 0 4 0 a2 2 0 1 0 -4 0z" fill="black"></path><path d="M1158 72 a2 2 0 1 0 4 0 a2 2 0 1 0 -4 0zM1094 8 a2 2 0 1 0 4 0 a2 2 0 1 0 -4 0z" fill="black"></path><path d="M902 456 a2 2 0 1 0 4 0 a2 2 0 1 0 -4 0zM886 536 a2 2 0 1 0 4 0 a2 2 0 1 0 -4 0z" fill="black"></path><path d="M198 248 a2 2 0 1 0 4 0 a2 2 0 1 0 -4 0zM342 440 a2 2 0 1 0 4 0 a2 2 0 1 0 -4 0z" fill="black"></path><path d="M278 56 a2 2 0 1 0 4 0 a2 2 0 1 0 -4 0zM470 312 a2 2 0 1 0 4 0 a2 2 0 1 0 -4 0z" fill="black"></path><path d="M310 552 a2 2 0 1 0 4 0 a2 2 0 1 0 -4 0zM246 552 a2 2 0 1 0 4 0 a2 2 0 1 0 -4 0z" fill="black"></path><path d="M1318 56 a2 2 0 1 0 4 0 a2 2 0 1 0 -4 0zM1398 136 a2 2 0 1 0 4 0 a2 2 0 1 0 -4 0z" fill="black"></path><path d="M1158 248 a2 2 0 1 0 4 0 a2 2 0 1 0 -4 0zM1382 264 a2 2 0 1 0 4 0 a2 2 0 1 0 -4 0z" fill="black"></path><path d="M662 360 a2 2 0 1 0 4 0 a2 2 0 1 0 -4 0zM550 56 a2 2 0 1 0 4 0 a2 2 0 1 0 -4 0z" fill="black"></path><path d="M582 248 a2 2 0 1 0 4 0 a2 2 0 1 0 -4 0zM406 552 a2 2 0 1 0 4 0 a2 2 0 1 0 -4 0z" fill="black"></path><path d="M694 120 a2 2 0 1 0 4 0 a2 2 0 1 0 -4 0zM598 24 a2 2 0 1 0 4 0 a2 2 0 1 0 -4 0z" fill="black"></path><path d="M950 168 a2 2 0 1 0 4 0 a2 2 0 1 0 -4 0zM1062 56 a2 2 0 1 0 4 0 a2 2 0 1 0 -4 0z" fill="black"></path><path d="M1142 312 a2 2 0 1 0 4 0 a2 2 0 1 0 -4 0zM1382 424 a2 2 0 1 0 4 0 a2 2 0 1 0 -4 0z" fill="black"></path><path d="M1158 312 a2 2 0 1 0 4 0 a2 2 0 1 0 -4 0zM1014 136 a2 2 0 1 0 4 0 a2 2 0 1 0 -4 0z" fill="black"></path><path d="M966 56 a2 2 0 1 0 4 0 a2 2 0 1 0 -4 0zM934 344 a2 2 0 1 0 4 0 a2 2 0 1 0 -4 0z" fill="black"></path><path d="M982 360 a2 2 0 1 0 4 0 a2 2 0 1 0 -4 0zM998 136 a2 2 0 1 0 4 0 a2 2 0 1 0 -4 0z" fill="black"></path><path d="M1238 88 a2 2 0 1 0 4 0 a2 2 0 1 0 -4 0zM1126 72 a2 2 0 1 0 4 0 a2 2 0 1 0 -4 0z" fill="black"></path><path d="M390 24 a2 2 0 1 0 4 0 a2 2 0 1 0 -4 0zM566 8 a2 2 0 1 0 4 0 a2 2 0 1 0 -4 0z" fill="black"></path><path d="M374 40 a2 2 0 1 0 4 0 a2 2 0 1 0 -4 0zM502 280 a2 2 0 1 0 4 0 a2 2 0 1 0 -4 0z" fill="black"></path><path d="M406 376 a2 2 0 1 0 4 0 a2 2 0 1 0 -4 0zM262 456 a2 2 0 1 0 4 0 a2 2 0 1 0 -4 0z" fill="black"></path><path d="M646 120 a2 2 0 1 0 4 0 a2 2 0 1 0 -4 0zM646 24 a2 2 0 1 0 4 0 a2 2 0 1 0 -4 0z" fill="black"></path><path d="M518 56 a2 2 0 1 0 4 0 a2 2 0 1 0 -4 0zM470 104 a2 2 0 1 0 4 0 a2 2 0 1 0 -4 0z" fill="black"></path><path d="M1286 520 a2 2 0 1 0 4 0 a2 2 0 1 0 -4 0zM1398 520 a2 2 0 1 0 4 0 a2 2 0 1 0 -4 0z" fill="black"></path><path d="M854 264 a2 2 0 1 0 4 0 a2 2 0 1 0 -4 0zM710 264 a2 2 0 1 0 4 0 a2 2 0 1 0 -4 0z" fill="black"></path><path d="M214 216 a2 2 0 1 0 4 0 a2 2 0 1 0 -4 0zM230 8 a2 2 0 1 0 4 0 a2 2 0 1 0 -4 0z" fill="black"></path><path d="M918 216 a2 2 0 1 0 4 0 a2 2 0 1 0 -4 0zM854 152 a2 2 0 1 0 4 0 a2 2 0 1 0 -4 0z" fill="black"></path><path d="M726 344 a2 2 0 1 0 4 0 a2 2 0 1 0 -4 0zM742 536 a2 2 0 1 0 4 0 a2 2 0 1 0 -4 0z" fill="black"></path><path d="M422 488 a2 2 0 1 0 4 0 a2 2 0 1 0 -4 0zM550 344 a2 2 0 1 0 4 0 a2 2 0 1 0 -4 0z" fill="black"></path><path d="M806 40 a2 2 0 1 0 4 0 a2 2 0 1 0 -4 0zM790 8 a2 2 0 1 0 4 0 a2 2 0 1 0 -4 0z" fill="black"></path><path d="M246 536 a2 2 0 1 0 4 0 a2 2 0 1 0 -4 0zM246 472 a2 2 0 1 0 4 0 a2 2 0 1 0 -4 0z" fill="black"></path><path d="M630 184 a2 2 0 1 0 4 0 a2 2 0 1 0 -4 0zM582 152 a2 2 0 1 0 4 0 a2 2 0 1 0 -4 0z" fill="black"></path><path d="M1286 56 a2 2 0 1 0 4 0 a2 2 0 1 0 -4 0zM1110 8 a2 2 0 1 0 4 0 a2 2 0 1 0 -4 0z" fill="black"></path><path d="M630 344 a2 2 0 1 0 4 0 a2 2 0 1 0 -4 0zM550 280 a2 2 0 1 0 4 0 a2 2 0 1 0 -4 0z" fill="black"></path><path d="M1174 168 a2 2 0 1 0 4 0 a2 2 0 1 0 -4 0zM1126 216 a2 2 0 1 0 4 0 a2 2 0 1 0 -4 0z" fill="black"></path><path d="M646 360 a2 2 0 1 0 4 0 a2 2 0 1 0 -4 0zM582 552 a2 2 0 1 0 4 0 a2 2 0 1 0 -4 0z" fill="black"></path><path d="M822 440 a2 2 0 1 0 4 0 a2 2 0 1 0 -4 0zM710 280 a2 2 0 1 0 4 0 a2 2 0 1 0 -4 0z" fill="black"></path><path d="M1078 456 a2 2 0 1 0 4 0 a2 2 0 1 0 -4 0zM1382 488 a2 2 0 1 0 4 0 a2 2 0 1 0 -4 0z" fill="black"></path><path d="M374 104 a2 2 0 1 0 4 0 a2 2 0 1 0 -4 0zM454 152 a2 2 0 1 0 4 0 a2 2 0 1 0 -4 0z" fill="black"></path><path d="M966 408 a2 2 0 1 0 4 0 a2 2 0 1 0 -4 0zM950 552 a2 2 0 1 0 4 0 a2 2 0 1 0 -4 0z" fill="black"></path><path d="M854 328 a2 2 0 1 0 4 0 a2 2 0 1 0 -4 0zM710 168 a2 2 0 1 0 4 0 a2 2 0 1 0 -4 0z" fill="black"></path><path d="M1206 200 a2 2 0 1 0 4 0 a2 2 0 1 0 -4 0zM1142 24 a2 2 0 1 0 4 0 a2 2 0 1 0 -4 0z" fill="black"></path><path d="M1062 456 a2 2 0 1 0 4 0 a2 2 0 1 0 -4 0zM886 312 a2 2 0 1 0 4 0 a2 2 0 1 0 -4 0z" fill="black"></path><path d="M1046 200 a2 2 0 1 0 4 0 a2 2 0 1 0 -4 0zM1078 200 a2 2 0 1 0 4 0 a2 2 0 1 0 -4 0z" fill="black"></path><path d="M502 408 a2 2 0 1 0 4 0 a2 2 0 1 0 -4 0zM550 360 a2 2 0 1 0 4 0 a2 2 0 1 0 -4 0z" fill="black"></path><path d="M134 472 a2 2 0 1 0 4 0 a2 2 0 1 0 -4 0zM134 552 a2 2 0 1 0 4 0 a2 2 0 1 0 -4 0z" fill="black"></path><path d="M1206 312 a2 2 0 1 0 4 0 a2 2 0 1 0 -4 0zM1174 312 a2 2 0 1 0 4 0 a2 2 0 1 0 -4 0z" fill="black"></path><path d="M230 280 a2 2 0 1 0 4 0 a2 2 0 1 0 -4 0zM310 232 a2 2 0 1 0 4 0 a2 2 0 1 0 -4 0z" fill="black"></path><path d="M150 472 a2 2 0 1 0 4 0 a2 2 0 1 0 -4 0zM214 472 a2 2 0 1 0 4 0 a2 2 0 1 0 -4 0z" fill="black"></path><path d="M102 248 a2 2 0 1 0 4 0 a2 2 0 1 0 -4 0zM22 552 a2 2 0 1 0 4 0 a2 2 0 1 0 -4 0z" fill="black"></path><path d="M438 24 a2 2 0 1 0 4 0 a2 2 0 1 0 -4 0zM550 24 a2 2 0 1 0 4 0 a2 2 0 1 0 -4 0z" fill="black"></path><path d="M390 184 a2 2 0 1 0 4 0 a2 2 0 1 0 -4 0zM390 56 a2 2 0 1 0 4 0 a2 2 0 1 0 -4 0z" fill="black"></path><path d="M86 104 a2 2 0 1 0 4 0 a2 2 0 1 0 -4 0zM22 120 a2 2 0 1 0 4 0 a2 2 0 1 0 -4 0z" fill="black"></path><path d="M710 56 a2 2 0 1 0 4 0 a2 2 0 1 0 -4 0zM662 24 a2 2 0 1 0 4 0 a2 2 0 1 0 -4 0z" fill="black"></path><path d="M134 440 a2 2 0 1 0 4 0 a2 2 0 1 0 -4 0zM166 408 a2 2 0 1 0 4 0 a2 2 0 1 0 -4 0z" fill="black"></path><path d="M774 72 a2 2 0 1 0 4 0 a2 2 0 1 0 -4 0zM854 72 a2 2 0 1 0 4 0 a2 2 0 1 0 -4 0z" fill="black"></path><path d="M102 56 a2 2 0 1 0 4 0 a2 2 0 1 0 -4 0zM54 24 a2 2 0 1 0 4 0 a2 2 0 1 0 -4 0z" fill="black"></path><path d="M486 360 a2 2 0 1 0 4 0 a2 2 0 1 0 -4 0zM534 280 a2 2 0 1 0 4 0 a2 2 0 1 0 -4 0z" fill="black"></path><path d="M774 216 a2 2 0 1 0 4 0 a2 2 0 1 0 -4 0zM902 264 a2 2 0 1 0 4 0 a2 2 0 1 0 -4 0z" fill="black"></path><path d="M1190 216 a2 2 0 1 0 4 0 a2 2 0 1 0 -4 0zM1142 232 a2 2 0 1 0 4 0 a2 2 0 1 0 -4 0z" fill="black"></path><path d="M1270 168 a2 2 0 1 0 4 0 a2 2 0 1 0 -4 0zM1382 152 a2 2 0 1 0 4 0 a2 2 0 1 0 -4 0z" fill="black"></path><path d="M1270 456 a2 2 0 1 0 4 0 a2 2 0 1 0 -4 0zM1190 472 a2 2 0 1 0 4 0 a2 2 0 1 0 -4 0z" fill="black"></path><path d="M1302 328 a2 2 0 1 0 4 0 a2 2 0 1 0 -4 0zM1158 216 a2 2 0 1 0 4 0 a2 2 0 1 0 -4 0z" fill="black"></path><path d="M1302 456 a2 2 0 1 0 4 0 a2 2 0 1 0 -4 0zM1382 456 a2 2 0 1 0 4 0 a2 2 0 1 0 -4 0z" fill="black"></path><path d="M1174 104 a2 2 0 1 0 4 0 a2 2 0 1 0 -4 0zM1302 104 a2 2 0 1 0 4 0 a2 2 0 1 0 -4 0z" fill="black"></path><path d="M1046 264 a2 2 0 1 0 4 0 a2 2 0 1 0 -4 0zM1078 440 a2 2 0 1 0 4 0 a2 2 0 1 0 -4 0z" fill="black"></path><path d="M1110 552 a2 2 0 1 0 4 0 a2 2 0 1 0 -4 0zM1110 520 a2 2 0 1 0 4 0 a2 2 0 1 0 -4 0z" fill="black"></path><path d="M854 504 a2 2 0 1 0 4 0 a2 2 0 1 0 -4 0zM806 536 a2 2 0 1 0 4 0 a2 2 0 1 0 -4 0z" fill="black"></path><path d="M166 296 a2 2 0 1 0 4 0 a2 2 0 1 0 -4 0zM70 168 a2 2 0 1 0 4 0 a2 2 0 1 0 -4 0z" fill="black"></path><path d="M1366 184 a2 2 0 1 0 4 0 a2 2 0 1 0 -4 0zM1206 264 a2 2 0 1 0 4 0 a2 2 0 1 0 -4 0z" fill="black"></path><path d="M790 184 a2 2 0 1 0 4 0 a2 2 0 1 0 -4 0zM902 232 a2 2 0 1 0 4 0 a2 2 0 1 0 -4 0z" fill="black"></path><path d="M758 376 a2 2 0 1 0 4 0 a2 2 0 1 0 -4 0zM646 440 a2 2 0 1 0 4 0 a2 2 0 1 0 -4 0z" fill="black"></path><path d="M38 264 a2 2 0 1 0 4 0 a2 2 0 1 0 -4 0zM6 392 a2 2 0 1 0 4 0 a2 2 0 1 0 -4 0z" fill="black"></path><path d="M1222 440 a2 2 0 1 0 4 0 a2 2 0 1 0 -4 0zM1382 440 a2 2 0 1 0 4 0 a2 2 0 1 0 -4 0z" fill="black"></path><path d="M742 360 a2 2 0 1 0 4 0 a2 2 0 1 0 -4 0zM662 504 a2 2 0 1 0 4 0 a2 2 0 1 0 -4 0z" fill="black"></path><path d="M518 264 a2 2 0 1 0 4 0 a2 2 0 1 0 -4 0zM534 216 a2 2 0 1 0 4 0 a2 2 0 1 0 -4 0z" fill="black"></path><path d="M342 488 a2 2 0 1 0 4 0 a2 2 0 1 0 -4 0zM262 536 a2 2 0 1 0 4 0 a2 2 0 1 0 -4 0z" fill="black"></path><path d="M1318 152 a2 2 0 1 0 4 0 a2 2 0 1 0 -4 0zM1286 152 a2 2 0 1 0 4 0 a2 2 0 1 0 -4 0z" fill="black"></path><path d="M70 248 a2 2 0 1 0 4 0 a2 2 0 1 0 -4 0zM118 184 a2 2 0 1 0 4 0 a2 2 0 1 0 -4 0z" fill="black"></path><path d="M694 360 a2 2 0 1 0 4 0 a2 2 0 1 0 -4 0zM726 360 a2 2 0 1 0 4 0 a2 2 0 1 0 -4 0z" fill="black"></path><path d="M150 216 a2 2 0 1 0 4 0 a2 2 0 1 0 -4 0zM182 392 a2 2 0 1 0 4 0 a2 2 0 1 0 -4 0z" fill="black"></path><path d="M950 456 a2 2 0 1 0 4 0 a2 2 0 1 0 -4 0zM998 488 a2 2 0 1 0 4 0 a2 2 0 1 0 -4 0z" fill="black"></path><path d="M998 88 a2 2 0 1 0 4 0 a2 2 0 1 0 -4 0zM950 152 a2 2 0 1 0 4 0 a2 2 0 1 0 -4 0z" fill="black"></path><path d="M790 216 a2 2 0 1 0 4 0 a2 2 0 1 0 -4 0zM694 184 a2 2 0 1 0 4 0 a2 2 0 1 0 -4 0z" fill="black"></path><path d="M1014 280 a2 2 0 1 0 4 0 a2 2 0 1 0 -4 0zM1094 104 a2 2 0 1 0 4 0 a2 2 0 1 0 -4 0z" fill="black"></path><path d="M742 472 a2 2 0 1 0 4 0 a2 2 0 1 0 -4 0zM742 376 a2 2 0 1 0 4 0 a2 2 0 1 0 -4 0z" fill="black"></path><path d="M918 472 a2 2 0 1 0 4 0 a2 2 0 1 0 -4 0zM726 312 a2 2 0 1 0 4 0 a2 2 0 1 0 -4 0z" fill="black"></path><path d="M198 40 a2 2 0 1 0 4 0 a2 2 0 1 0 -4 0zM390 8 a2 2 0 1 0 4 0 a2 2 0 1 0 -4 0z" fill="black"></path><path d="M646 184 a2 2 0 1 0 4 0 a2 2 0 1 0 -4 0zM678 312 a2 2 0 1 0 4 0 a2 2 0 1 0 -4 0z" fill="black"></path><path d="M1398 552 a2 2 0 1 0 4 0 a2 2 0 1 0 -4 0zM1126 536 a2 2 0 1 0 4 0 a2 2 0 1 0 -4 0z" fill="black"></path><path d="M742 104 a2 2 0 1 0 4 0 a2 2 0 1 0 -4 0zM758 72 a2 2 0 1 0 4 0 a2 2 0 1 0 -4 0z" fill="black"></path><path d="M1174 376 a2 2 0 1 0 4 0 a2 2 0 1 0 -4 0zM1110 232 a2 2 0 1 0 4 0 a2 2 0 1 0 -4 0z" fill="black"></path><path d="M822 376 a2 2 0 1 0 4 0 a2 2 0 1 0 -4 0zM934 392 a2 2 0 1 0 4 0 a2 2 0 1 0 -4 0z" fill="black"></path><path d="M1366 72 a2 2 0 1 0 4 0 a2 2 0 1 0 -4 0zM1398 120 a2 2 0 1 0 4 0 a2 2 0 1 0 -4 0z" fill="black"></path><path d="M1062 152 a2 2 0 1 0 4 0 a2 2 0 1 0 -4 0zM1062 184 a2 2 0 1 0 4 0 a2 2 0 1 0 -4 0z" fill="black"></path><path d="M1302 488 a2 2 0 1 0 4 0 a2 2 0 1 0 -4 0zM1270 488 a2 2 0 1 0 4 0 a2 2 0 1 0 -4 0z" fill="black"></path><path d="M854 296 a2 2 0 1 0 4 0 a2 2 0 1 0 -4 0zM726 280 a2 2 0 1 0 4 0 a2 2 0 1 0 -4 0z" fill="black"></path><path d="M310 456 a2 2 0 1 0 4 0 a2 2 0 1 0 -4 0zM278 472 a2 2 0 1 0 4 0 a2 2 0 1 0 -4 0z" fill="black"></path><path d="M998 184 a2 2 0 1 0 4 0 a2 2 0 1 0 -4 0zM966 184 a2 2 0 1 0 4 0 a2 2 0 1 0 -4 0z" fill="black"></path><path d="M1302 232 a2 2 0 1 0 4 0 a2 2 0 1 0 -4 0zM1238 216 a2 2 0 1 0 4 0 a2 2 0 1 0 -4 0z" fill="black"></path><path d="M598 552 a2 2 0 1 0 4 0 a2 2 0 1 0 -4 0zM630 520 a2 2 0 1 0 4 0 a2 2 0 1 0 -4 0z" fill="black"></path><path d="M1062 120 a2 2 0 1 0 4 0 a2 2 0 1 0 -4 0zM1094 120 a2 2 0 1 0 4 0 a2 2 0 1 0 -4 0z" fill="black"></path><path d="M598 536 a2 2 0 1 0 4 0 a2 2 0 1 0 -4 0zM614 424 a2 2 0 1 0 4 0 a2 2 0 1 0 -4 0z" fill="black"></path><path d="M1206 552 a2 2 0 1 0 4 0 a2 2 0 1 0 -4 0zM1382 552 a2 2 0 1 0 4 0 a2 2 0 1 0 -4 0z" fill="black"></path><path d="M1382 24 a2 2 0 1 0 4 0 a2 2 0 1 0 -4 0zM1270 8 a2 2 0 1 0 4 0 a2 2 0 1 0 -4 0z" fill="black"></path><path d="M86 264 a2 2 0 1 0 4 0 a2 2 0 1 0 -4 0zM6 152 a2 2 0 1 0 4 0 a2 2 0 1 0 -4 0z" fill="black"></path><path d="M182 456 a2 2 0 1 0 4 0 a2 2 0 1 0 -4 0zM38 392 a2 2 0 1 0 4 0 a2 2 0 1 0 -4 0z" fill="black"></path><path d="M630 56 a2 2 0 1 0 4 0 a2 2 0 1 0 -4 0zM630 120 a2 2 0 1 0 4 0 a2 2 0 1 0 -4 0z" fill="black"></path><path d="M310 104 a2 2 0 1 0 4 0 a2 2 0 1 0 -4 0zM310 24 a2 2 0 1 0 4 0 a2 2 0 1 0 -4 0z" fill="black"></path><path d="M758 232 a2 2 0 1 0 4 0 a2 2 0 1 0 -4 0zM694 200 a2 2 0 1 0 4 0 a2 2 0 1 0 -4 0z" fill="black"></path><path d="M614 360 a2 2 0 1 0 4 0 a2 2 0 1 0 -4 0zM582 360 a2 2 0 1 0 4 0 a2 2 0 1 0 -4 0z" fill="black"></path><path d="M886 120 a2 2 0 1 0 4 0 a2 2 0 1 0 -4 0zM918 120 a2 2 0 1 0 4 0 a2 2 0 1 0 -4 0z" fill="black"></path><path d="M838 216 a2 2 0 1 0 4 0 a2 2 0 1 0 -4 0zM854 184 a2 2 0 1 0 4 0 a2 2 0 1 0 -4 0z" fill="black"></path><path d="M918 392 a2 2 0 1 0 4 0 a2 2 0 1 0 -4 0zM806 504 a2 2 0 1 0 4 0 a2 2 0 1 0 -4 0z" fill="black"></path><path d="M1270 136 a2 2 0 1 0 4 0 a2 2 0 1 0 -4 0zM1126 184 a2 2 0 1 0 4 0 a2 2 0 1 0 -4 0z" fill="black"></path><path d="M326 312 a2 2 0 1 0 4 0 a2 2 0 1 0 -4 0zM214 328 a2 2 0 1 0 4 0 a2 2 0 1 0 -4 0z" fill="black"></path><path d="M86 392 a2 2 0 1 0 4 0 a2 2 0 1 0 -4 0zM86 344 a2 2 0 1 0 4 0 a2 2 0 1 0 -4 0z" fill="black"></path><path d="M1126 360 a2 2 0 1 0 4 0 a2 2 0 1 0 -4 0zM1222 456 a2 2 0 1 0 4 0 a2 2 0 1 0 -4 0z" fill="black"></path><path d="M38 200 a2 2 0 1 0 4 0 a2 2 0 1 0 -4 0zM54 248 a2 2 0 1 0 4 0 a2 2 0 1 0 -4 0z" fill="black"></path><path d="M1014 184 a2 2 0 1 0 4 0 a2 2 0 1 0 -4 0zM982 216 a2 2 0 1 0 4 0 a2 2 0 1 0 -4 0z" fill="black"></path><path d="M518 152 a2 2 0 1 0 4 0 a2 2 0 1 0 -4 0zM518 184 a2 2 0 1 0 4 0 a2 2 0 1 0 -4 0z" fill="black"></path><path d="M22 408 a2 2 0 1 0 4 0 a2 2 0 1 0 -4 0zM102 552 a2 2 0 1 0 4 0 a2 2 0 1 0 -4 0z" fill="black"></path><path d="M774 136 a2 2 0 1 0 4 0 a2 2 0 1 0 -4 0zM726 152 a2 2 0 1 0 4 0 a2 2 0 1 0 -4 0z" fill="black"></path><path d="M278 232 a2 2 0 1 0 4 0 a2 2 0 1 0 -4 0zM230 264 a2 2 0 1 0 4 0 a2 2 0 1 0 -4 0z" fill="black"></path><path d="M294 152 a2 2 0 1 0 4 0 a2 2 0 1 0 -4 0zM294 40 a2 2 0 1 0 4 0 a2 2 0 1 0 -4 0z" fill="black"></path><path d="M950 296 a2 2 0 1 0 4 0 a2 2 0 1 0 -4 0zM1062 440 a2 2 0 1 0 4 0 a2 2 0 1 0 -4 0z" fill="black"></path><path d="M1270 232 a2 2 0 1 0 4 0 a2 2 0 1 0 -4 0zM1270 312 a2 2 0 1 0 4 0 a2 2 0 1 0 -4 0z" fill="black"></path><path d="M438 296 a2 2 0 1 0 4 0 a2 2 0 1 0 -4 0zM294 168 a2 2 0 1 0 4 0 a2 2 0 1 0 -4 0z" fill="black"></path><path d="M1238 232 a2 2 0 1 0 4 0 a2 2 0 1 0 -4 0zM1254 312 a2 2 0 1 0 4 0 a2 2 0 1 0 -4 0z" fill="black"></path><path d="M246 408 a2 2 0 1 0 4 0 a2 2 0 1 0 -4 0zM246 440 a2 2 0 1 0 4 0 a2 2 0 1 0 -4 0z" fill="black"></path><path d="M182 136 a2 2 0 1 0 4 0 a2 2 0 1 0 -4 0zM150 136 a2 2 0 1 0 4 0 a2 2 0 1 0 -4 0z" fill="black"></path><path d="M1366 152 a2 2 0 1 0 4 0 a2 2 0 1 0 -4 0zM1334 104 a2 2 0 1 0 4 0 a2 2 0 1 0 -4 0z" fill="black"></path><path d="M902 8 a2 2 0 1 0 4 0 a2 2 0 1 0 -4 0zM870 56 a2 2 0 1 0 4 0 a2 2 0 1 0 -4 0z" fill="black"></path><path d="M70 408 a2 2 0 1 0 4 0 a2 2 0 1 0 -4 0zM70 360 a2 2 0 1 0 4 0 a2 2 0 1 0 -4 0z" fill="black"></path><path d="M1126 120 a2 2 0 1 0 4 0 a2 2 0 1 0 -4 0zM1126 168 a2 2 0 1 0 4 0 a2 2 0 1 0 -4 0z" fill="black"></path><path d="M1078 488 a2 2 0 1 0 4 0 a2 2 0 1 0 -4 0zM998 552 a2 2 0 1 0 4 0 a2 2 0 1 0 -4 0z" fill="black"></path><path d="M806 312 a2 2 0 1 0 4 0 a2 2 0 1 0 -4 0zM854 280 a2 2 0 1 0 4 0 a2 2 0 1 0 -4 0z" fill="black"></path><path d="M582 392 a2 2 0 1 0 4 0 a2 2 0 1 0 -4 0zM582 424 a2 2 0 1 0 4 0 a2 2 0 1 0 -4 0z" fill="black"></path><path d="M870 440 a2 2 0 1 0 4 0 a2 2 0 1 0 -4 0zM918 408 a2 2 0 1 0 4 0 a2 2 0 1 0 -4 0z" fill="black"></path><path d="M758 120 a2 2 0 1 0 4 0 a2 2 0 1 0 -4 0zM838 136 a2 2 0 1 0 4 0 a2 2 0 1 0 -4 0z" fill="black"></path><path d="M502 424 a2 2 0 1 0 4 0 a2 2 0 1 0 -4 0zM438 504 a2 2 0 1 0 4 0 a2 2 0 1 0 -4 0z" fill="black"></path><path d="M166 344 a2 2 0 1 0 4 0 a2 2 0 1 0 -4 0zM134 200 a2 2 0 1 0 4 0 a2 2 0 1 0 -4 0z" fill="black"></path><path d="M374 184 a2 2 0 1 0 4 0 a2 2 0 1 0 -4 0zM342 88 a2 2 0 1 0 4 0 a2 2 0 1 0 -4 0z" fill="black"></path><path d="M1110 24 a2 2 0 1 0 4 0 a2 2 0 1 0 -4 0zM1206 72 a2 2 0 1 0 4 0 a2 2 0 1 0 -4 0z" fill="black"></path><path d="M1062 536 a2 2 0 1 0 4 0 a2 2 0 1 0 -4 0zM1030 552 a2 2 0 1 0 4 0 a2 2 0 1 0 -4 0z" fill="black"></path><path d="M214 200 a2 2 0 1 0 4 0 a2 2 0 1 0 -4 0zM294 232 a2 2 0 1 0 4 0 a2 2 0 1 0 -4 0z" fill="black"></path><path d="M1046 360 a2 2 0 1 0 4 0 a2 2 0 1 0 -4 0zM982 376 a2 2 0 1 0 4 0 a2 2 0 1 0 -4 0z" fill="black"></path><path d="M1382 408 a2 2 0 1 0 4 0 a2 2 0 1 0 -4 0zM1382 360 a2 2 0 1 0 4 0 a2 2 0 1 0 -4 0z" fill="black"></path><path d="M198 152 a2 2 0 1 0 4 0 a2 2 0 1 0 -4 0zM198 200 a2 2 0 1 0 4 0 a2 2 0 1 0 -4 0z" fill="black"></path><path d="M998 216 a2 2 0 1 0 4 0 a2 2 0 1 0 -4 0zM998 376 a2 2 0 1 0 4 0 a2 2 0 1 0 -4 0z" fill="black"></path><path d="M486 40 a2 2 0 1 0 4 0 a2 2 0 1 0 -4 0zM406 40 a2 2 0 1 0 4 0 a2 2 0 1 0 -4 0z" fill="black"></path><path d="M374 136 a2 2 0 1 0 4 0 a2 2 0 1 0 -4 0zM390 248 a2 2 0 1 0 4 0 a2 2 0 1 0 -4 0z" fill="black"></path><path d="M502 232 a2 2 0 1 0 4 0 a2 2 0 1 0 -4 0zM486 200 a2 2 0 1 0 4 0 a2 2 0 1 0 -4 0z" fill="black"></path><path d="M934 504 a2 2 0 1 0 4 0 a2 2 0 1 0 -4 0zM966 456 a2 2 0 1 0 4 0 a2 2 0 1 0 -4 0z" fill="black"></path><path d="M438 264 a2 2 0 1 0 4 0 a2 2 0 1 0 -4 0zM390 136 a2 2 0 1 0 4 0 a2 2 0 1 0 -4 0z" fill="black"></path><path d="M534 440 a2 2 0 1 0 4 0 a2 2 0 1 0 -4 0zM454 504 a2 2 0 1 0 4 0 a2 2 0 1 0 -4 0z" fill="black"></path><path d="M86 280 a2 2 0 1 0 4 0 a2 2 0 1 0 -4 0zM22 376 a2 2 0 1 0 4 0 a2 2 0 1 0 -4 0z" fill="black"></path><path d="M486 56 a2 2 0 1 0 4 0 a2 2 0 1 0 -4 0zM534 40 a2 2 0 1 0 4 0 a2 2 0 1 0 -4 0z" fill="black"></path><path d="M150 40 a2 2 0 1 0 4 0 a2 2 0 1 0 -4 0zM230 88 a2 2 0 1 0 4 0 a2 2 0 1 0 -4 0z" fill="black"></path><path d="M454 248 a2 2 0 1 0 4 0 a2 2 0 1 0 -4 0zM486 296 a2 2 0 1 0 4 0 a2 2 0 1 0 -4 0z" fill="black"></path><path d="M70 488 a2 2 0 1 0 4 0 a2 2 0 1 0 -4 0zM22 424 a2 2 0 1 0 4 0 a2 2 0 1 0 -4 0z" fill="black"></path><path d="M1270 376 a2 2 0 1 0 4 0 a2 2 0 1 0 -4 0zM1254 408 a2 2 0 1 0 4 0 a2 2 0 1 0 -4 0z" fill="black"></path><path d="M982 72 a2 2 0 1 0 4 0 a2 2 0 1 0 -4 0zM950 104 a2 2 0 1 0 4 0 a2 2 0 1 0 -4 0z" fill="black"></path><path d="M230 424 a2 2 0 1 0 4 0 a2 2 0 1 0 -4 0zM214 344 a2 2 0 1 0 4 0 a2 2 0 1 0 -4 0z" fill="black"></path><path d="M54 200 a2 2 0 1 0 4 0 a2 2 0 1 0 -4 0zM22 152 a2 2 0 1 0 4 0 a2 2 0 1 0 -4 0z" fill="black"></path><path d="M1286 280 a2 2 0 1 0 4 0 a2 2 0 1 0 -4 0zM1286 312 a2 2 0 1 0 4 0 a2 2 0 1 0 -4 0z" fill="black"></path><path d="M182 24 a2 2 0 1 0 4 0 a2 2 0 1 0 -4 0zM294 8 a2 2 0 1 0 4 0 a2 2 0 1 0 -4 0z" fill="black"></path><path d="M310 360 a2 2 0 1 0 4 0 a2 2 0 1 0 -4 0zM262 312 a2 2 0 1 0 4 0 a2 2 0 1 0 -4 0z" fill="black"></path><path d="M246 184 a2 2 0 1 0 4 0 a2 2 0 1 0 -4 0zM198 184 a2 2 0 1 0 4 0 a2 2 0 1 0 -4 0z" fill="black"></path><path d="M694 504 a2 2 0 1 0 4 0 a2 2 0 1 0 -4 0zM678 440 a2 2 0 1 0 4 0 a2 2 0 1 0 -4 0z" fill="black"></path><path d="M358 296 a2 2 0 1 0 4 0 a2 2 0 1 0 -4 0zM358 408 a2 2 0 1 0 4 0 a2 2 0 1 0 -4 0z" fill="black"></path><path d="M486 344 a2 2 0 1 0 4 0 a2 2 0 1 0 -4 0zM534 296 a2 2 0 1 0 4 0 a2 2 0 1 0 -4 0z" fill="black"></path><path d="M182 280 a2 2 0 1 0 4 0 a2 2 0 1 0 -4 0zM182 312 a2 2 0 1 0 4 0 a2 2 0 1 0 -4 0z" fill="black"></path><path d="M1158 120 a2 2 0 1 0 4 0 a2 2 0 1 0 -4 0zM1142 152 a2 2 0 1 0 4 0 a2 2 0 1 0 -4 0z" fill="black"></path><path d="M1366 408 a2 2 0 1 0 4 0 a2 2 0 1 0 -4 0zM1270 408 a2 2 0 1 0 4 0 a2 2 0 1 0 -4 0z" fill="black"></path><path d="M838 408 a2 2 0 1 0 4 0 a2 2 0 1 0 -4 0zM790 376 a2 2 0 1 0 4 0 a2 2 0 1 0 -4 0z" fill="black"></path><path d="M662 344 a2 2 0 1 0 4 0 a2 2 0 1 0 -4 0zM630 296 a2 2 0 1 0 4 0 a2 2 0 1 0 -4 0z" fill="black"></path><path d="M630 360 a2 2 0 1 0 4 0 a2 2 0 1 0 -4 0zM598 408 a2 2 0 1 0 4 0 a2 2 0 1 0 -4 0z" fill="black"></path><path d="M566 504 a2 2 0 1 0 4 0 a2 2 0 1 0 -4 0zM566 552 a2 2 0 1 0 4 0 a2 2 0 1 0 -4 0z" fill="black"></path><path d="M662 56 a2 2 0 1 0 4 0 a2 2 0 1 0 -4 0zM710 136 a2 2 0 1 0 4 0 a2 2 0 1 0 -4 0z" fill="black"></path><path d="M246 216 a2 2 0 1 0 4 0 a2 2 0 1 0 -4 0zM262 248 a2 2 0 1 0 4 0 a2 2 0 1 0 -4 0z" fill="black"></path><path d="M294 328 a2 2 0 1 0 4 0 a2 2 0 1 0 -4 0zM342 408 a2 2 0 1 0 4 0 a2 2 0 1 0 -4 0z" fill="black"></path><path d="M118 376 a2 2 0 1 0 4 0 a2 2 0 1 0 -4 0zM102 440 a2 2 0 1 0 4 0 a2 2 0 1 0 -4 0z" fill="black"></path><path d="M374 200 a2 2 0 1 0 4 0 a2 2 0 1 0 -4 0zM342 200 a2 2 0 1 0 4 0 a2 2 0 1 0 -4 0z" fill="black"></path><path d="M374 24 a2 2 0 1 0 4 0 a2 2 0 1 0 -4 0zM342 24 a2 2 0 1 0 4 0 a2 2 0 1 0 -4 0z" fill="black"></path><path d="M550 120 a2 2 0 1 0 4 0 a2 2 0 1 0 -4 0zM518 136 a2 2 0 1 0 4 0 a2 2 0 1 0 -4 0z" fill="black"></path><path d="M598 472 a2 2 0 1 0 4 0 a2 2 0 1 0 -4 0zM598 520 a2 2 0 1 0 4 0 a2 2 0 1 0 -4 0z" fill="black"></path><path d="M1334 344 a2 2 0 1 0 4 0 a2 2 0 1 0 -4 0zM1286 232 a2 2 0 1 0 4 0 a2 2 0 1 0 -4 0z" fill="black"></path><path d="M918 200 a2 2 0 1 0 4 0 a2 2 0 1 0 -4 0zM918 136 a2 2 0 1 0 4 0 a2 2 0 1 0 -4 0z" fill="black"></path><path d="M982 56 a2 2 0 1 0 4 0 a2 2 0 1 0 -4 0zM1046 40 a2 2 0 1 0 4 0 a2 2 0 1 0 -4 0z" fill="black"></path><path d="M1078 552 a2 2 0 1 0 4 0 a2 2 0 1 0 -4 0zM1094 520 a2 2 0 1 0 4 0 a2 2 0 1 0 -4 0z" fill="black"></path><path d="M774 504 a2 2 0 1 0 4 0 a2 2 0 1 0 -4 0zM774 536 a2 2 0 1 0 4 0 a2 2 0 1 0 -4 0z" fill="black"></path><path d="M1078 296 a2 2 0 1 0 4 0 a2 2 0 1 0 -4 0zM1078 216 a2 2 0 1 0 4 0 a2 2 0 1 0 -4 0z" fill="black"></path><path d="M1110 424 a2 2 0 1 0 4 0 a2 2 0 1 0 -4 0zM1142 376 a2 2 0 1 0 4 0 a2 2 0 1 0 -4 0z" fill="black"></path><path d="M758 152 a2 2 0 1 0 4 0 a2 2 0 1 0 -4 0zM822 152 a2 2 0 1 0 4 0 a2 2 0 1 0 -4 0z" fill="black"></path><path d="M390 440 a2 2 0 1 0 4 0 a2 2 0 1 0 -4 0zM342 472 a2 2 0 1 0 4 0 a2 2 0 1 0 -4 0z" fill="black"></path><path d="M854 24 a2 2 0 1 0 4 0 a2 2 0 1 0 -4 0zM806 8 a2 2 0 1 0 4 0 a2 2 0 1 0 -4 0z" fill="black"></path><path d="M726 424 a2 2 0 1 0 4 0 a2 2 0 1 0 -4 0zM774 424 a2 2 0 1 0 4 0 a2 2 0 1 0 -4 0z" fill="black"></path><path d="M1222 56 a2 2 0 1 0 4 0 a2 2 0 1 0 -4 0zM1270 56 a2 2 0 1 0 4 0 a2 2 0 1 0 -4 0z" fill="black"></path><path d="M726 488 a2 2 0 1 0 4 0 a2 2 0 1 0 -4 0zM758 456 a2 2 0 1 0 4 0 a2 2 0 1 0 -4 0z" fill="black"></path><path d="M342 536 a2 2 0 1 0 4 0 a2 2 0 1 0 -4 0zM486 376 a2 2 0 1 0 4 0 a2 2 0 1 0 -4 0z" fill="black"></path><path d="M1062 216 a2 2 0 1 0 4 0 a2 2 0 1 0 -4 0zM1078 360 a2 2 0 1 0 4 0 a2 2 0 1 0 -4 0z" fill="black"></path><path d="M182 440 a2 2 0 1 0 4 0 a2 2 0 1 0 -4 0zM150 440 a2 2 0 1 0 4 0 a2 2 0 1 0 -4 0z" fill="black"></path><path d="M22 440 a2 2 0 1 0 4 0 a2 2 0 1 0 -4 0zM54 552 a2 2 0 1 0 4 0 a2 2 0 1 0 -4 0z" fill="black"></path><path d="M22 344 a2 2 0 1 0 4 0 a2 2 0 1 0 -4 0zM38 344 a2 2 0 1 0 4 0 a2 2 0 1 0 -4 0z" fill="black"></path><path d="M678 232 a2 2 0 1 0 4 0 a2 2 0 1 0 -4 0zM646 200 a2 2 0 1 0 4 0 a2 2 0 1 0 -4 0z" fill="black"></path><path d="M262 40 a2 2 0 1 0 4 0 a2 2 0 1 0 -4 0zM214 40 a2 2 0 1 0 4 0 a2 2 0 1 0 -4 0z" fill="black"></path><path d="M1238 168 a2 2 0 1 0 4 0 a2 2 0 1 0 -4 0zM1254 136 a2 2 0 1 0 4 0 a2 2 0 1 0 -4 0z" fill="black"></path><path d="M38 504 a2 2 0 1 0 4 0 a2 2 0 1 0 -4 0zM22 456 a2 2 0 1 0 4 0 a2 2 0 1 0 -4 0z" fill="black"></path><path d="M742 248 a2 2 0 1 0 4 0 a2 2 0 1 0 -4 0zM710 216 a2 2 0 1 0 4 0 a2 2 0 1 0 -4 0z" fill="black"></path><path d="M166 88 a2 2 0 1 0 4 0 a2 2 0 1 0 -4 0zM150 120 a2 2 0 1 0 4 0 a2 2 0 1 0 -4 0z" fill="black"></path><path d="M1238 440 a2 2 0 1 0 4 0 a2 2 0 1 0 -4 0zM1206 392 a2 2 0 1 0 4 0 a2 2 0 1 0 -4 0z" fill="black"></path><path d="M406 72 a2 2 0 1 0 4 0 a2 2 0 1 0 -4 0zM454 136 a2 2 0 1 0 4 0 a2 2 0 1 0 -4 0z" fill="black"></path><path d="M358 520 a2 2 0 1 0 4 0 a2 2 0 1 0 -4 0zM390 552 a2 2 0 1 0 4 0 a2 2 0 1 0 -4 0z" fill="black"></path><path d="M1142 296 a2 2 0 1 0 4 0 a2 2 0 1 0 -4 0zM1126 248 a2 2 0 1 0 4 0 a2 2 0 1 0 -4 0z" fill="black"></path><path d="M518 456 a2 2 0 1 0 4 0 a2 2 0 1 0 -4 0zM550 456 a2 2 0 1 0 4 0 a2 2 0 1 0 -4 0z" fill="black"></path><path d="M1318 248 a2 2 0 1 0 4 0 a2 2 0 1 0 -4 0zM1366 280 a2 2 0 1 0 4 0 a2 2 0 1 0 -4 0z" fill="black"></path><path d="M502 328 a2 2 0 1 0 4 0 a2 2 0 1 0 -4 0zM534 312 a2 2 0 1 0 4 0 a2 2 0 1 0 -4 0z" fill="black"></path><path d="M182 120 a2 2 0 1 0 4 0 a2 2 0 1 0 -4 0zM246 168 a2 2 0 1 0 4 0 a2 2 0 1 0 -4 0z" fill="black"></path><path d="M1318 312 a2 2 0 1 0 4 0 a2 2 0 1 0 -4 0zM1318 376 a2 2 0 1 0 4 0 a2 2 0 1 0 -4 0z" fill="black"></path><path d="M470 296 a2 2 0 1 0 4 0 a2 2 0 1 0 -4 0zM454 264 a2 2 0 1 0 4 0 a2 2 0 1 0 -4 0z" fill="black"></path><path d="M1238 344 a2 2 0 1 0 4 0 a2 2 0 1 0 -4 0zM1238 392 a2 2 0 1 0 4 0 a2 2 0 1 0 -4 0z" fill="black"></path><path d="M1046 472 a2 2 0 1 0 4 0 a2 2 0 1 0 -4 0zM1046 504 a2 2 0 1 0 4 0 a2 2 0 1 0 -4 0z" fill="black"></path><path d="M758 8 a2 2 0 1 0 4 0 a2 2 0 1 0 -4 0zM710 8 a2 2 0 1 0 4 0 a2 2 0 1 0 -4 0z" fill="black"></path><path d="M966 264 a2 2 0 1 0 4 0 a2 2 0 1 0 -4 0zM950 216 a2 2 0 1 0 4 0 a2 2 0 1 0 -4 0z" fill="black"></path><path d="M534 488 a2 2 0 1 0 4 0 a2 2 0 1 0 -4 0zM470 504 a2 2 0 1 0 4 0 a2 2 0 1 0 -4 0z" fill="black"></path><path d="M534 184 a2 2 0 1 0 4 0 a2 2 0 1 0 -4 0zM534 152 a2 2 0 1 0 4 0 a2 2 0 1 0 -4 0z" fill="black"></path><path d="M678 408 a2 2 0 1 0 4 0 a2 2 0 1 0 -4 0zM694 376 a2 2 0 1 0 4 0 a2 2 0 1 0 -4 0z" fill="black"></path><path d="M1158 456 a2 2 0 1 0 4 0 a2 2 0 1 0 -4 0zM1126 456 a2 2 0 1 0 4 0 a2 2 0 1 0 -4 0z" fill="black"></path><path d="M582 56 a2 2 0 1 0 4 0 a2 2 0 1 0 -4 0zM582 24 a2 2 0 1 0 4 0 a2 2 0 1 0 -4 0z" fill="black"></path><path d="M390 328 a2 2 0 1 0 4 0 a2 2 0 1 0 -4 0zM422 360 a2 2 0 1 0 4 0 a2 2 0 1 0 -4 0z" fill="black"></path><path d="M454 552 a2 2 0 1 0 4 0 a2 2 0 1 0 -4 0zM422 536 a2 2 0 1 0 4 0 a2 2 0 1 0 -4 0z" fill="black"></path><path d="M86 120 a2 2 0 1 0 4 0 a2 2 0 1 0 -4 0zM54 104 a2 2 0 1 0 4 0 a2 2 0 1 0 -4 0z" fill="black"></path><path d="M374 504 a2 2 0 1 0 4 0 a2 2 0 1 0 -4 0zM390 536 a2 2 0 1 0 4 0 a2 2 0 1 0 -4 0z" fill="black"></path><path d="M1318 24 a2 2 0 1 0 4 0 a2 2 0 1 0 -4 0zM1366 8 a2 2 0 1 0 4 0 a2 2 0 1 0 -4 0z" fill="black"></path><path d="M182 488 a2 2 0 1 0 4 0 a2 2 0 1 0 -4 0zM150 504 a2 2 0 1 0 4 0 a2 2 0 1 0 -4 0z" fill="black"></path><path d="M1222 184 a2 2 0 1 0 4 0 a2 2 0 1 0 -4 0zM1174 152 a2 2 0 1 0 4 0 a2 2 0 1 0 -4 0z" fill="black"></path><path d="M1302 136 a2 2 0 1 0 4 0 a2 2 0 1 0 -4 0zM1350 152 a2 2 0 1 0 4 0 a2 2 0 1 0 -4 0z" fill="black"></path><path d="M758 248 a2 2 0 1 0 4 0 a2 2 0 1 0 -4 0zM806 248 a2 2 0 1 0 4 0 a2 2 0 1 0 -4 0z" fill="black"></path><path d="M246 360 a2 2 0 1 0 4 0 a2 2 0 1 0 -4 0zM262 328 a2 2 0 1 0 4 0 a2 2 0 1 0 -4 0z" fill="black"></path><path d="M1206 520 a2 2 0 1 0 4 0 a2 2 0 1 0 -4 0zM1158 520 a2 2 0 1 0 4 0 a2 2 0 1 0 -4 0z" fill="black"></path><path d="M742 24 a2 2 0 1 0 4 0 a2 2 0 1 0 -4 0zM790 40 a2 2 0 1 0 4 0 a2 2 0 1 0 -4 0z" fill="black"></path><path d="M854 120 a2 2 0 1 0 4 0 a2 2 0 1 0 -4 0zM774 104 a2 2 0 1 0 4 0 a2 2 0 1 0 -4 0z" fill="black"></path><path d="M1158 408 a2 2 0 1 0 4 0 a2 2 0 1 0 -4 0zM1126 408 a2 2 0 1 0 4 0 a2 2 0 1 0 -4 0z" fill="black"></path><path d="M342 312 a2 2 0 1 0 4 0 a2 2 0 1 0 -4 0zM342 344 a2 2 0 1 0 4 0 a2 2 0 1 0 -4 0z" fill="black"></path><path d="M582 184 a2 2 0 1 0 4 0 a2 2 0 1 0 -4 0zM598 344 a2 2 0 1 0 4 0 a2 2 0 1 0 -4 0z" fill="black"></path><path d="M1078 312 a2 2 0 1 0 4 0 a2 2 0 1 0 -4 0zM1078 344 a2 2 0 1 0 4 0 a2 2 0 1 0 -4 0z" fill="black"></path><path d="M710 72 a2 2 0 1 0 4 0 a2 2 0 1 0 -4 0zM726 120 a2 2 0 1 0 4 0 a2 2 0 1 0 -4 0z" fill="black"></path><path d="M1190 136 a2 2 0 1 0 4 0 a2 2 0 1 0 -4 0zM1238 136 a2 2 0 1 0 4 0 a2 2 0 1 0 -4 0z" fill="black"></path><path d="M230 360 a2 2 0 1 0 4 0 a2 2 0 1 0 -4 0zM230 408 a2 2 0 1 0 4 0 a2 2 0 1 0 -4 0z" fill="black"></path><path d="M710 488 a2 2 0 1 0 4 0 a2 2 0 1 0 -4 0zM758 488 a2 2 0 1 0 4 0 a2 2 0 1 0 -4 0z" fill="black"></path><path d="M342 552 a2 2 0 1 0 4 0 a2 2 0 1 0 -4 0zM374 552 a2 2 0 1 0 4 0 a2 2 0 1 0 -4 0z" fill="black"></path><path d="M550 520 a2 2 0 1 0 4 0 a2 2 0 1 0 -4 0zM550 552 a2 2 0 1 0 4 0 a2 2 0 1 0 -4 0z" fill="black"></path><path d="M102 392 a2 2 0 1 0 4 0 a2 2 0 1 0 -4 0zM134 408 a2 2 0 1 0 4 0 a2 2 0 1 0 -4 0z" fill="black"></path><path d="M406 264 a2 2 0 1 0 4 0 a2 2 0 1 0 -4 0zM438 280 a2 2 0 1 0 4 0 a2 2 0 1 0 -4 0z" fill="black"></path><path d="M934 536 a2 2 0 1 0 4 0 a2 2 0 1 0 -4 0zM966 504 a2 2 0 1 0 4 0 a2 2 0 1 0 -4 0z" fill="black"></path><path d="M326 168 a2 2 0 1 0 4 0 a2 2 0 1 0 -4 0zM326 120 a2 2 0 1 0 4 0 a2 2 0 1 0 -4 0z" fill="black"></path><path d="M726 392 a2 2 0 1 0 4 0 a2 2 0 1 0 -4 0zM758 408 a2 2 0 1 0 4 0 a2 2 0 1 0 -4 0z" fill="black"></path><path d="M1270 520 a2 2 0 1 0 4 0 a2 2 0 1 0 -4 0zM1222 520 a2 2 0 1 0 4 0 a2 2 0 1 0 -4 0z" fill="black"></path><path d="M22 216 a2 2 0 1 0 4 0 a2 2 0 1 0 -4 0zM22 168 a2 2 0 1 0 4 0 a2 2 0 1 0 -4 0z" fill="black"></path><path d="M1014 24 a2 2 0 1 0 4 0 a2 2 0 1 0 -4 0zM966 40 a2 2 0 1 0 4 0 a2 2 0 1 0 -4 0z" fill="black"></path><path d="M1350 232 a2 2 0 1 0 4 0 a2 2 0 1 0 -4 0zM1350 264 a2 2 0 1 0 4 0 a2 2 0 1 0 -4 0z" fill="black"></path><path d="M134 328 a2 2 0 1 0 4 0 a2 2 0 1 0 -4 0zM134 280 a2 2 0 1 0 4 0 a2 2 0 1 0 -4 0z" fill="black"></path><path d="M390 424 a2 2 0 1 0 4 0 a2 2 0 1 0 -4 0zM422 408 a2 2 0 1 0 4 0 a2 2 0 1 0 -4 0z" fill="black"></path><path d="M294 136 a2 2 0 1 0 4 0 a2 2 0 1 0 -4 0zM294 104 a2 2 0 1 0 4 0 a2 2 0 1 0 -4 0z" fill="black"></path><path d="M390 88 a2 2 0 1 0 4 0 a2 2 0 1 0 -4 0zM438 136 a2 2 0 1 0 4 0 a2 2 0 1 0 -4 0z" fill="black"></path><path d="M1158 552 a2 2 0 1 0 4 0 a2 2 0 1 0 -4 0zM1190 552 a2 2 0 1 0 4 0 a2 2 0 1 0 -4 0z" fill="black"></path><path d="M790 280 a2 2 0 1 0 4 0 a2 2 0 1 0 -4 0zM742 280 a2 2 0 1 0 4 0 a2 2 0 1 0 -4 0z" fill="black"></path><path d="M182 520 a2 2 0 1 0 4 0 a2 2 0 1 0 -4 0zM214 552 a2 2 0 1 0 4 0 a2 2 0 1 0 -4 0z" fill="black"></path><path d="M662 248 a2 2 0 1 0 4 0 a2 2 0 1 0 -4 0zM662 216 a2 2 0 1 0 4 0 a2 2 0 1 0 -4 0z" fill="black"></path><path d="M390 376 a2 2 0 1 0 4 0 a2 2 0 1 0 -4 0zM390 344 a2 2 0 1 0 4 0 a2 2 0 1 0 -4 0z" fill="black"></path><path d="M358 472 a2 2 0 1 0 4 0 a2 2 0 1 0 -4 0zM390 456 a2 2 0 1 0 4 0 a2 2 0 1 0 -4 0z" fill="black"></path><path d="M1238 24 a2 2 0 1 0 4 0 a2 2 0 1 0 -4 0zM1190 24 a2 2 0 1 0 4 0 a2 2 0 1 0 -4 0z" fill="black"></path><path d="M710 408 a2 2 0 1 0 4 0 a2 2 0 1 0 -4 0zM694 440 a2 2 0 1 0 4 0 a2 2 0 1 0 -4 0z" fill="black"></path><path d="M822 40 a2 2 0 1 0 4 0 a2 2 0 1 0 -4 0zM854 40 a2 2 0 1 0 4 0 a2 2 0 1 0 -4 0z" fill="black"></path><path d="M918 312 a2 2 0 1 0 4 0 a2 2 0 1 0 -4 0zM918 280 a2 2 0 1 0 4 0 a2 2 0 1 0 -4 0z" fill="black"></path><path d="M182 504 a2 2 0 1 0 4 0 a2 2 0 1 0 -4 0zM214 504 a2 2 0 1 0 4 0 a2 2 0 1 0 -4 0z" fill="black"></path><path d="M1206 248 a2 2 0 1 0 4 0 a2 2 0 1 0 -4 0zM1206 216 a2 2 0 1 0 4 0 a2 2 0 1 0 -4 0z" fill="black"></path><path d="M742 296 a2 2 0 1 0 4 0 a2 2 0 1 0 -4 0zM822 280 a2 2 0 1 0 4 0 a2 2 0 1 0 -4 0z" fill="black"></path><path d="M502 552 a2 2 0 1 0 4 0 a2 2 0 1 0 -4 0zM534 536 a2 2 0 1 0 4 0 a2 2 0 1 0 -4 0z" fill="black"></path><path d="M998 296 a2 2 0 1 0 4 0 a2 2 0 1 0 -4 0zM1014 344 a2 2 0 1 0 4 0 a2 2 0 1 0 -4 0z" fill="black"></path><path d="M1238 376 a2 2 0 1 0 4 0 a2 2 0 1 0 -4 0zM1222 328 a2 2 0 1 0 4 0 a2 2 0 1 0 -4 0z" fill="black"></path><path d="M1222 264 a2 2 0 1 0 4 0 a2 2 0 1 0 -4 0zM1238 296 a2 2 0 1 0 4 0 a2 2 0 1 0 -4 0z" fill="black"></path><path d="M262 392 a2 2 0 1 0 4 0 a2 2 0 1 0 -4 0zM262 440 a2 2 0 1 0 4 0 a2 2 0 1 0 -4 0z" fill="black"></path><path d="M1286 88 a2 2 0 1 0 4 0 a2 2 0 1 0 -4 0zM1254 88 a2 2 0 1 0 4 0 a2 2 0 1 0 -4 0z" fill="black"></path><path d="M294 408 a2 2 0 1 0 4 0 a2 2 0 1 0 -4 0zM310 376 a2 2 0 1 0 4 0 a2 2 0 1 0 -4 0z" fill="black"></path><path d="M470 536 a2 2 0 1 0 4 0 a2 2 0 1 0 -4 0zM502 536 a2 2 0 1 0 4 0 a2 2 0 1 0 -4 0z" fill="black"></path><path d="M486 248 a2 2 0 1 0 4 0 a2 2 0 1 0 -4 0zM486 216 a2 2 0 1 0 4 0 a2 2 0 1 0 -4 0z" fill="black"></path><path d="M422 264 a2 2 0 1 0 4 0 a2 2 0 1 0 -4 0zM422 216 a2 2 0 1 0 4 0 a2 2 0 1 0 -4 0z" fill="black"></path><path d="M1398 40 a2 2 0 1 0 4 0 a2 2 0 1 0 -4 0zM1366 56 a2 2 0 1 0 4 0 a2 2 0 1 0 -4 0z" fill="black"></path><path d="M1334 216 a2 2 0 1 0 4 0 a2 2 0 1 0 -4 0zM1302 216 a2 2 0 1 0 4 0 a2 2 0 1 0 -4 0z" fill="black"></path><path d="M582 280 a2 2 0 1 0 4 0 a2 2 0 1 0 -4 0zM582 344 a2 2 0 1 0 4 0 a2 2 0 1 0 -4 0z" fill="black"></path><path d="M1126 376 a2 2 0 1 0 4 0 a2 2 0 1 0 -4 0zM1110 344 a2 2 0 1 0 4 0 a2 2 0 1 0 -4 0z" fill="black"></path><path d="M6 232 a2 2 0 1 0 4 0 a2 2 0 1 0 -4 0zM22 264 a2 2 0 1 0 4 0 a2 2 0 1 0 -4 0z" fill="black"></path><path d="M1334 8 a2 2 0 1 0 4 0 a2 2 0 1 0 -4 0zM1302 8 a2 2 0 1 0 4 0 a2 2 0 1 0 -4 0z" fill="black"></path></mask></defs></svg>