<?xml version="1.0" encoding="UTF-8" standalone="no"?>
<!-- Created with Inkscape (http://www.inkscape.org/) -->

<svg
   width="51.977463mm"
   height="73.821999mm"
   viewBox="0 0 51.977464 73.821999"
   version="1.1"
   id="svg5"
   inkscape:version="1.4 (86a8ad7, 2024-10-11)"
   sodipodi:docname="augustine-eze-logo.svg"
   xml:space="preserve"
   inkscape:export-filename="augustine-eze-logo.png"
   inkscape:export-xdpi="96"
   inkscape:export-ydpi="96"
   xmlns:inkscape="http://www.inkscape.org/namespaces/inkscape"
   xmlns:sodipodi="http://sodipodi.sourceforge.net/DTD/sodipodi-0.dtd"
   xmlns="http://www.w3.org/2000/svg"
   xmlns:svg="http://www.w3.org/2000/svg"><sodipodi:namedview
     id="namedview7"
     pagecolor="#505050"
     bordercolor="#eeeeee"
     borderopacity="1"
     inkscape:showpageshadow="0"
     inkscape:pageopacity="0"
     inkscape:pagecheckerboard="0"
     inkscape:deskcolor="#505050"
     inkscape:document-units="mm"
     showgrid="false"
     inkscape:zoom="0.67402316"
     inkscape:cx="8.159957"
     inkscape:cy="-67.505099"
     inkscape:window-width="1920"
     inkscape:window-height="1051"
     inkscape:window-x="-9"
     inkscape:window-y="-9"
     inkscape:window-maximized="1"
     inkscape:current-layer="layer1"
     showguides="false"><sodipodi:guide
       position="1617.378,-44.888137"
       orientation="1,0"
       id="guide20039"
       inkscape:locked="false" /><sodipodi:guide
       position="2123.6658,-62.652618"
       orientation="1,0"
       id="guide20041"
       inkscape:locked="false" /></sodipodi:namedview><defs
     id="defs2" /><g
     inkscape:label="Layer 1"
     inkscape:groupmode="layer"
     id="layer1"
     transform="translate(171.79289,56.534434)"><rect
       style="opacity:1;fill:#ffffff;stroke:none;stroke-width:7.84317;stroke-linecap:round;paint-order:markers fill stroke"
       id="rect36080"
       width="51.977463"
       height="73.821999"
       x="-171.79289"
       y="-56.534435"
       inkscape:export-filename="augustine-eze-logo.jpg"
       inkscape:export-xdpi="96"
       inkscape:export-ydpi="96" /><g
       id="g1980"
       transform="matrix(0.67314711,0,0,0.8831164,-130.29026,-61.88882)"
       style="fill:#000000"><rect
         style="opacity:1;fill:#000000;stroke:none;stroke-width:9.32855;stroke-linecap:round;stroke-dasharray:none;stroke-opacity:1;paint-order:markers fill stroke"
         id="rect1974"
         width="54.56353"
         height="15.371964"
         x="-139.31755"
         y="-66.418205" /><rect
         style="opacity:1;fill:#000000;stroke:none;stroke-width:7.34481;stroke-linecap:round;stroke-dasharray:none;stroke-opacity:1;paint-order:markers fill stroke"
         id="rect1976"
         width="29.43495"
         height="17.664452"
         x="-124.73833"
         y="-91.279305" /><rect
         style="opacity:1;fill:#000000;stroke:none;stroke-width:5.2326;stroke-linecap:round;stroke-dasharray:none;stroke-opacity:1;paint-order:markers fill stroke"
         id="rect1978"
         width="22.035301"
         height="80.643669"
         x="152.0036"
         y="40.283691"
         transform="matrix(-0.38133711,-0.92443605,-0.67274218,0.73987699,0,0)" /></g><g
       id="g354"
       transform="matrix(0.68561545,0,0,0.89947388,-68.885832,61.93448)"
       style="fill:#000000"><rect
         style="opacity:1;fill:#000000;stroke:none;stroke-width:9.32855;stroke-linecap:round;stroke-dasharray:none;stroke-opacity:1;paint-order:markers fill stroke"
         id="rect348"
         width="54.56353"
         height="15.371964"
         x="-139.31755"
         y="-66.418205" /><path
         id="rect350"
         style="opacity:1;stroke-width:7.34481;stroke-linecap:round;paint-order:markers fill stroke"
         d="m -110.53993,-91.279305 h 15.236553 v 17.664452 h -29.434953 z"
         sodipodi:nodetypes="ccccc" /><path
         id="rect352"
         style="opacity:1;stroke-width:5.2326;stroke-linecap:round;paint-order:markers fill stroke"
         d="m 174.03923,40.283807 -1.5e-4,80.643513 -5.32323,2.8e-4 -1.07473,-80.643589 z m -9.34146,2.83e-4 1.07367,80.64305 -13.76809,1.3e-4 1.5e-4,-80.643508 z"
         transform="matrix(-0.38133711,-0.92443605,-0.67274218,0.73987699,0,0)" /></g><g
       id="g3101"
       transform="matrix(0.68561545,0,0,0.89947388,-216.48215,84.701997)"
       style="fill:#000000"
       inkscape:export-filename="augustine-eze-logo-trans.png"
       inkscape:export-xdpi="96"
       inkscape:export-ydpi="96"><rect
         style="opacity:1;fill:#000000;stroke:none;stroke-width:9.32855;stroke-linecap:round;stroke-dasharray:none;stroke-opacity:1;paint-order:markers fill stroke"
         id="rect3095"
         width="54.56353"
         height="15.371964"
         x="-139.31755"
         y="-66.418205" /><path
         id="path3097"
         style="opacity:1;stroke-width:7.34481;stroke-linecap:round;paint-order:markers fill stroke"
         d="m -110.53993,-91.279305 h 15.236553 v 17.664452 h -29.434953 z"
         sodipodi:nodetypes="ccccc" /><path
         id="path3099"
         style="opacity:1;stroke-width:5.2326;stroke-linecap:round;paint-order:markers fill stroke"
         d="m 174.03923,40.283807 -1.5e-4,80.643513 -5.32323,2.8e-4 -1.07473,-80.643589 z m -9.34146,2.83e-4 1.07367,80.64305 -13.76809,1.3e-4 1.5e-4,-80.643508 z"
         transform="matrix(-0.38133711,-0.92443605,-0.67274218,0.73987699,0,0)" /></g><g
       id="g2"
       transform="matrix(0.68561545,0,0,0.89947388,22.184234,-41.696974)"
       style="fill:#000000"><path
         id="rect1"
         style="opacity:1;fill:none;fill-opacity:1;stroke:#0059ff;stroke-width:1.18939;stroke-linecap:round;stroke-dasharray:none;stroke-opacity:0.509804;paint-order:markers fill stroke"
         d="m -110.59101,-106.68908 -18.16581,19.446077 0.69243,1.661774 18.26411,-19.160331 z m 2.07829,3.77334 -18.23395,19.572187 1.75144,4.245757 h 18.20126 v -5.12791 h -13.53856 l 2.06924,-2.275813 7.9501,-0.124763 v -5.892391 l -2.58843,0.120354 6.00381,-6.60302 z"
         inkscape:export-filename="logo-title.png"
         inkscape:export-xdpi="96"
         inkscape:export-ydpi="96" /></g><g
       id="g3"
       transform="matrix(0.72299972,0,0,0.94851912,37.548813,66.753055)"
       style="fill:#000080"
       inkscape:export-filename="page-icon.png"
       inkscape:export-xdpi="96"
       inkscape:export-ydpi="96"><rect
         style="opacity:1;fill:#000080;stroke:none;stroke-width:9.32855;stroke-linecap:round;stroke-dasharray:none;stroke-opacity:1;paint-order:markers fill stroke"
         id="rect2"
         width="54.56353"
         height="15.371964"
         x="-139.31755"
         y="-66.418205" /><path
         id="path2"
         style="opacity:1;fill:#000080;stroke-width:7.34481;stroke-linecap:round;paint-order:markers fill stroke"
         d="m -110.53993,-91.279305 h 15.236553 v 17.664452 h -29.434953 z"
         sodipodi:nodetypes="ccccc" /><path
         id="path3"
         style="opacity:1;fill:#000080;stroke-width:5.2326;stroke-linecap:round;paint-order:markers fill stroke"
         d="m 174.03923,40.283807 -1.5e-4,80.643513 -5.32323,2.8e-4 -1.07473,-80.643589 z m -9.34146,2.83e-4 1.07367,80.64305 -13.76809,1.3e-4 1.5e-4,-80.643508 z"
         transform="matrix(-0.38133711,-0.92443605,-0.67274218,0.73987699,0,0)" /></g><rect
       style="fill:none;stroke:none;stroke-width:0.941388;stroke-linecap:round"
       id="rect3"
       width="80.863937"
       height="80.863937"
       x="-86.922653"
       y="-60.055405"
       ry="6.9209294"
       inkscape:export-filename="page-icon.png"
       inkscape:export-xdpi="96"
       inkscape:export-ydpi="96" /></g></svg>
